<?xml version="1.0" encoding="utf-8"?>
<svg viewBox="0 170.613 500 123.743" xmlns="http://www.w3.org/2000/svg">
  <g transform="matrix(0.266548, -0.001339, 0.001253, 0.249337, 330.431768, 373.15241)" style="">
    <path transform="matrix(3.042146, 0.016337, -0.015288, 3.252136, -340.609314, -988.74884)" style="fill: rgb(51, 51, 51); white-space: pre;"/>
    <g style="isolation: isolate;" transform="matrix(1.785333, 0.009587, -0.013993, 2.976591, -599.392395, -1032.456177)"/>
    <path d="M 2.497 -17.393 Q 2.497 -18.032 2.564 -18.641 Q 2.631 -19.251 2.876 -19.734 Q 3.122 -20.217 3.612 -20.514 Q 4.103 -20.812 4.965 -20.812 Q 5.827 -20.812 6.318 -20.514 Q 6.808 -20.217 7.054 -19.734 Q 7.299 -19.251 7.366 -18.641 Q 7.433 -18.032 7.433 -17.393 L 7.433 -3.419 Q 7.433 -2.765 7.373 -2.155 Q 7.314 -1.546 7.069 -1.063 Q 6.823 -0.58 6.325 -0.29 Q 5.827 0 4.965 0 Q 4.103 0 3.612 -0.29 Q 3.122 -0.58 2.876 -1.063 Q 2.631 -1.546 2.564 -2.155 Q 2.497 -2.765 2.497 -3.419 Z" transform="matrix(6.688776, 0.035921, -0.040189, 8.549361, -744.583923, -477.93866)" style="fill: rgb(255, 255, 255); white-space: pre;"/>
    <path d="M 24.258 -3.389 Q 24.258 -2.75 24.184 -2.141 Q 24.11 -1.531 23.864 -1.055 Q 23.619 -0.58 23.166 -0.29 Q 22.712 0 21.939 0 Q 21.181 0 20.735 -0.29 Q 20.289 -0.58 20.051 -1.055 Q 19.813 -1.531 19.747 -2.141 Q 19.68 -2.75 19.68 -3.389 L 19.68 -9.187 Q 19.68 -9.603 19.643 -10.004 Q 19.605 -10.406 19.472 -10.711 Q 19.338 -11.015 19.078 -11.201 Q 18.818 -11.387 18.372 -11.387 Q 17.762 -11.387 17.39 -10.986 Q 17.019 -10.584 16.803 -9.886 Q 16.588 -9.187 16.513 -8.243 Q 16.439 -7.299 16.439 -6.214 L 16.439 -3.389 Q 16.439 -2.75 16.365 -2.141 Q 16.29 -1.531 16.045 -1.055 Q 15.8 -0.58 15.346 -0.29 Q 14.893 0 14.12 0 Q 13.362 0 12.916 -0.29 Q 12.47 -0.58 12.232 -1.055 Q 11.994 -1.531 11.927 -2.141 Q 11.86 -2.75 11.86 -3.389 L 11.86 -11.506 Q 11.86 -12.145 11.905 -12.747 Q 11.95 -13.349 12.173 -13.817 Q 12.396 -14.286 12.849 -14.576 Q 13.302 -14.865 14.12 -14.865 Q 14.938 -14.865 15.398 -14.59 Q 15.859 -14.315 16.09 -13.929 Q 16.32 -13.542 16.38 -13.111 Q 16.439 -12.68 16.439 -12.368 Q 16.558 -12.799 16.811 -13.245 Q 17.063 -13.691 17.457 -14.048 Q 17.851 -14.405 18.401 -14.635 Q 18.951 -14.865 19.68 -14.865 Q 20.497 -14.865 21.315 -14.598 Q 22.133 -14.33 22.787 -13.706 Q 23.441 -13.082 23.849 -12.071 Q 24.258 -11.06 24.258 -9.573 Z" transform="matrix(6.688776, 0.035921, -0.040189, 8.549361, -744.583923, -477.93866)" style="fill: rgb(255, 255, 255); white-space: pre;"/>
    <path d="M 34.364 -14.865 Q 34.735 -14.865 35.122 -14.821 Q 35.508 -14.776 35.813 -14.598 Q 36.118 -14.419 36.311 -14.048 Q 36.504 -13.676 36.504 -13.022 Q 36.504 -12.413 36.311 -12.063 Q 36.118 -11.714 35.813 -11.528 Q 35.508 -11.342 35.122 -11.29 Q 34.735 -11.238 34.364 -11.238 L 33.472 -11.238 L 33.472 -3.36 Q 33.472 -2.706 33.405 -2.103 Q 33.338 -1.501 33.093 -1.033 Q 32.848 -0.565 32.379 -0.282 Q 31.911 0 31.123 0 Q 30.365 0 29.927 -0.282 Q 29.488 -0.565 29.265 -1.033 Q 29.042 -1.501 28.983 -2.103 Q 28.923 -2.706 28.923 -3.36 L 28.923 -11.238 L 28.091 -11.238 Q 27.674 -11.238 27.295 -11.29 Q 26.916 -11.342 26.626 -11.528 Q 26.337 -11.714 26.158 -12.063 Q 25.98 -12.413 25.98 -13.022 Q 25.98 -13.676 26.158 -14.048 Q 26.337 -14.419 26.626 -14.598 Q 26.916 -14.776 27.295 -14.821 Q 27.674 -14.865 28.091 -14.865 L 28.923 -14.865 Q 28.923 -16.174 29.042 -17.274 Q 29.161 -18.374 29.622 -19.154 Q 30.083 -19.935 30.989 -20.373 Q 31.896 -20.812 33.472 -20.812 Q 34.141 -20.812 34.735 -20.693 Q 35.33 -20.574 35.776 -20.321 Q 36.222 -20.068 36.482 -19.66 Q 36.742 -19.251 36.742 -18.671 Q 36.742 -18.136 36.556 -17.779 Q 36.371 -17.422 36.103 -17.199 Q 35.836 -16.976 35.516 -16.887 Q 35.196 -16.798 34.929 -16.798 Q 34.706 -16.798 34.512 -16.902 Q 34.319 -17.006 34.067 -17.006 Q 33.858 -17.006 33.747 -16.872 Q 33.635 -16.738 33.569 -16.515 Q 33.502 -16.293 33.487 -16.025 Q 33.472 -15.757 33.472 -15.49 L 33.472 -14.865 Z" transform="matrix(6.688776, 0.035921, -0.040189, 8.549361, -744.583923, -477.93866)" style="fill: rgb(255, 255, 255); white-space: pre;"/>
    <path d="M 38.284 -9.276 Q 38.284 -10.644 38.656 -11.595 Q 39.028 -12.546 39.615 -13.186 Q 40.202 -13.825 40.923 -14.182 Q 41.644 -14.538 42.343 -14.717 Q 43.041 -14.895 43.643 -14.94 Q 44.245 -14.984 44.587 -14.984 Q 44.929 -14.984 45.524 -14.94 Q 46.118 -14.895 46.795 -14.717 Q 47.471 -14.538 48.162 -14.182 Q 48.854 -13.825 49.411 -13.186 Q 49.969 -12.546 50.325 -11.595 Q 50.682 -10.644 50.682 -9.276 L 50.682 -5.589 Q 50.682 -4.222 50.325 -3.27 Q 49.969 -2.319 49.411 -1.68 Q 48.854 -1.041 48.162 -0.684 Q 47.471 -0.327 46.795 -0.149 Q 46.118 0.03 45.524 0.074 Q 44.929 0.119 44.587 0.119 Q 44.245 0.119 43.643 0.074 Q 43.041 0.03 42.343 -0.149 Q 41.644 -0.327 40.923 -0.684 Q 40.202 -1.041 39.615 -1.68 Q 39.028 -2.319 38.656 -3.27 Q 38.284 -4.222 38.284 -5.589 Z M 42.863 -4.549 Q 42.878 -4.118 43.071 -3.791 Q 43.235 -3.493 43.584 -3.263 Q 43.933 -3.033 44.587 -3.033 Q 45.212 -3.033 45.546 -3.263 Q 45.881 -3.493 46.044 -3.791 Q 46.222 -4.118 46.252 -4.549 L 46.252 -9.93 Q 46.222 -10.376 46.044 -10.748 Q 45.881 -11.045 45.546 -11.305 Q 45.212 -11.565 44.587 -11.565 Q 43.933 -11.565 43.584 -11.305 Q 43.235 -11.045 43.071 -10.748 Q 42.878 -10.376 42.863 -9.93 Z" transform="matrix(6.688776, 0.035921, -0.040189, 8.549361, -744.583923, -477.93866)" style="fill: rgb(255, 255, 255); white-space: pre;"/>
    <path d="M 58.736 -2.468 Q 58.736 -1.204 58.097 -0.602 Q 57.458 0 56.298 0 Q 55.109 0 54.47 -0.602 Q 53.831 -1.204 53.831 -2.468 Q 53.831 -3.746 54.47 -4.326 Q 55.109 -4.906 56.298 -4.906 Q 57.532 -4.906 58.134 -4.326 Q 58.736 -3.746 58.736 -2.468 Z" transform="matrix(6.688776, 0.035921, -0.040189, 8.549361, -744.583923, -477.93866)" style="fill: rgb(255, 255, 255); white-space: pre;"/>
    <path d="M 70.87 -20.812 Q 71.465 -20.812 72.074 -20.752 Q 72.684 -20.693 73.174 -20.47 Q 73.665 -20.247 73.977 -19.808 Q 74.289 -19.37 74.289 -18.612 Q 74.289 -17.853 73.977 -17.415 Q 73.665 -16.976 73.174 -16.753 Q 72.684 -16.53 72.074 -16.471 Q 71.465 -16.411 70.87 -16.411 L 67.332 -16.411 L 67.332 -12.546 L 69.205 -12.546 Q 69.785 -12.546 70.394 -12.502 Q 71.004 -12.457 71.494 -12.249 Q 71.985 -12.041 72.305 -11.595 Q 72.624 -11.149 72.624 -10.346 Q 72.624 -9.544 72.312 -9.098 Q 72 -8.652 71.509 -8.444 Q 71.019 -8.235 70.409 -8.191 Q 69.8 -8.146 69.205 -8.146 L 67.332 -8.146 L 67.332 -3.419 Q 67.332 -2.765 67.295 -2.155 Q 67.258 -1.546 67.042 -1.063 Q 66.827 -0.58 66.366 -0.29 Q 65.905 0 65.072 0 Q 64.225 0 63.764 -0.29 Q 63.304 -0.58 63.095 -1.063 Q 62.887 -1.546 62.85 -2.155 Q 62.813 -2.765 62.813 -3.419 L 62.813 -17.393 Q 62.813 -18.032 62.85 -18.641 Q 62.887 -19.251 63.095 -19.734 Q 63.304 -20.217 63.764 -20.514 Q 64.225 -20.812 65.072 -20.812 Z" transform="matrix(6.688776, 0.035921, -0.040189, 8.549361, -744.583923, -477.93866)" style="fill: rgb(255, 255, 255); white-space: pre;"/>
    <path d="M 76.424 -11.476 Q 76.424 -12.115 76.498 -12.725 Q 76.572 -13.334 76.818 -13.81 Q 77.063 -14.286 77.516 -14.576 Q 77.97 -14.865 78.743 -14.865 Q 79.501 -14.865 79.947 -14.576 Q 80.393 -14.286 80.631 -13.81 Q 80.868 -13.334 80.935 -12.725 Q 81.002 -12.115 81.002 -11.476 L 81.002 -5.679 Q 81.002 -5.247 81.039 -4.854 Q 81.076 -4.46 81.21 -4.155 Q 81.344 -3.85 81.604 -3.664 Q 81.864 -3.479 82.31 -3.479 Q 82.905 -3.479 83.284 -3.88 Q 83.663 -4.281 83.879 -4.98 Q 84.094 -5.679 84.169 -6.623 Q 84.243 -7.567 84.243 -8.652 L 84.243 -11.476 Q 84.243 -12.115 84.317 -12.725 Q 84.391 -13.334 84.637 -13.81 Q 84.882 -14.286 85.335 -14.576 Q 85.789 -14.865 86.562 -14.865 Q 87.32 -14.865 87.766 -14.576 Q 88.212 -14.286 88.45 -13.81 Q 88.688 -13.334 88.754 -12.725 Q 88.821 -12.115 88.821 -11.476 L 88.821 -3.36 Q 88.821 -2.72 88.777 -2.118 Q 88.732 -1.516 88.509 -1.048 Q 88.286 -0.58 87.833 -0.29 Q 87.379 0 86.562 0 Q 85.744 0 85.283 -0.275 Q 84.823 -0.55 84.592 -0.937 Q 84.362 -1.323 84.302 -1.754 Q 84.243 -2.185 84.243 -2.497 Q 84.124 -2.066 83.871 -1.62 Q 83.618 -1.174 83.225 -0.818 Q 82.831 -0.461 82.281 -0.23 Q 81.731 0 81.002 0 Q 80.185 0 79.367 -0.268 Q 78.549 -0.535 77.895 -1.16 Q 77.241 -1.784 76.832 -2.795 Q 76.424 -3.806 76.424 -5.292 Z" transform="matrix(6.688776, 0.035921, -0.040189, 8.549361, -744.583923, -477.93866)" style="fill: rgb(255, 255, 255); white-space: pre;"/>
    <path d="M 102.68 0 Q 101.921 0 101.475 -0.29 Q 101.029 -0.58 100.792 -1.055 Q 100.554 -1.531 100.487 -2.133 Q 100.42 -2.735 100.42 -3.36 L 100.42 -9.246 Q 100.42 -9.648 100.383 -10.034 Q 100.346 -10.421 100.212 -10.718 Q 100.078 -11.015 99.818 -11.201 Q 99.558 -11.387 99.112 -11.387 Q 98.517 -11.387 98.146 -10.986 Q 97.774 -10.584 97.558 -9.893 Q 97.343 -9.202 97.261 -8.265 Q 97.179 -7.329 97.179 -6.243 L 97.179 -3.36 Q 97.179 -2.735 97.112 -2.133 Q 97.046 -1.531 96.815 -1.055 Q 96.585 -0.58 96.139 -0.29 Q 95.693 0 94.92 0 Q 94.147 0 93.701 -0.29 Q 93.255 -0.58 93.024 -1.055 Q 92.794 -1.531 92.727 -2.133 Q 92.66 -2.735 92.66 -3.36 L 92.66 -11.506 Q 92.66 -12.13 92.712 -12.732 Q 92.764 -13.334 92.987 -13.81 Q 93.21 -14.286 93.664 -14.576 Q 94.117 -14.865 94.92 -14.865 Q 95.737 -14.865 96.191 -14.59 Q 96.644 -14.315 96.867 -13.921 Q 97.09 -13.528 97.135 -13.096 Q 97.179 -12.665 97.179 -12.368 Q 97.313 -12.799 97.603 -13.245 Q 97.893 -13.691 98.339 -14.048 Q 98.785 -14.405 99.365 -14.635 Q 99.944 -14.865 100.658 -14.865 Q 101.639 -14.865 102.561 -14.39 Q 103.482 -13.914 104.136 -12.844 Q 104.359 -13.349 104.79 -13.728 Q 105.222 -14.107 105.772 -14.36 Q 106.322 -14.613 106.946 -14.739 Q 107.57 -14.865 108.18 -14.865 Q 108.997 -14.865 109.815 -14.598 Q 110.633 -14.33 111.287 -13.706 Q 111.941 -13.082 112.35 -12.078 Q 112.758 -11.075 112.758 -9.603 L 112.758 -3.36 Q 112.758 -2.735 112.684 -2.133 Q 112.61 -1.531 112.372 -1.055 Q 112.134 -0.58 111.681 -0.29 Q 111.227 0 110.469 0 Q 109.696 0 109.243 -0.29 Q 108.789 -0.58 108.551 -1.055 Q 108.314 -1.531 108.247 -2.133 Q 108.18 -2.735 108.18 -3.36 L 108.18 -9.246 Q 108.18 -9.648 108.135 -10.034 Q 108.091 -10.421 107.957 -10.718 Q 107.823 -11.015 107.555 -11.201 Q 107.288 -11.387 106.842 -11.387 Q 106.366 -11.387 106.032 -11.09 Q 105.697 -10.792 105.474 -10.272 Q 105.251 -9.752 105.132 -9.031 Q 105.013 -8.31 104.969 -7.462 L 104.969 -3.36 Q 104.969 -2.735 104.902 -2.133 Q 104.835 -1.531 104.597 -1.055 Q 104.359 -0.58 103.906 -0.29 Q 103.453 0 102.68 0 Z" transform="matrix(6.688776, 0.035921, -0.040189, 8.549361, -744.583923, -477.93866)" style="fill: rgb(255, 255, 255); white-space: pre;"/>
    <path d="M 128.062 -3.36 Q 128.062 -2.735 128.017 -2.133 Q 127.972 -1.531 127.749 -1.055 Q 127.526 -0.58 127.08 -0.29 Q 126.634 0 125.832 0 Q 125.014 0 124.553 -0.275 Q 124.092 -0.55 123.869 -0.944 Q 123.646 -1.338 123.594 -1.769 Q 123.542 -2.2 123.542 -2.497 Q 123.409 -2.066 123.163 -1.62 Q 122.918 -1.174 122.532 -0.818 Q 122.145 -0.461 121.602 -0.23 Q 121.06 0 120.331 0 Q 119.514 0 118.696 -0.268 Q 117.879 -0.535 117.225 -1.16 Q 116.571 -1.784 116.162 -2.787 Q 115.753 -3.791 115.753 -5.262 L 115.753 -9.573 Q 115.753 -11.06 116.162 -12.063 Q 116.571 -13.067 117.225 -13.684 Q 117.879 -14.301 118.696 -14.568 Q 119.514 -14.836 120.331 -14.836 Q 121.06 -14.836 121.602 -14.613 Q 122.145 -14.39 122.532 -14.033 Q 122.918 -13.676 123.163 -13.23 Q 123.409 -12.784 123.542 -12.338 Q 123.542 -13.082 123.751 -13.572 Q 123.959 -14.063 124.286 -14.353 Q 124.613 -14.642 125.022 -14.754 Q 125.43 -14.865 125.832 -14.865 Q 126.575 -14.865 127.021 -14.576 Q 127.467 -14.286 127.697 -13.817 Q 127.928 -13.349 127.995 -12.732 Q 128.062 -12.115 128.062 -11.476 Z M 120.331 -5.649 Q 120.331 -5.247 120.361 -4.861 Q 120.391 -4.474 120.525 -4.162 Q 120.659 -3.85 120.919 -3.664 Q 121.179 -3.479 121.64 -3.479 Q 122.219 -3.479 122.584 -3.739 Q 122.948 -3.999 123.156 -4.541 Q 123.364 -5.084 123.446 -5.909 Q 123.528 -6.734 123.542 -7.879 Q 123.542 -8.34 123.461 -8.942 Q 123.379 -9.544 123.171 -10.079 Q 122.963 -10.614 122.591 -10.986 Q 122.219 -11.357 121.64 -11.357 Q 121.179 -11.357 120.919 -11.171 Q 120.659 -10.986 120.525 -10.688 Q 120.391 -10.391 120.361 -10.012 Q 120.331 -9.633 120.331 -9.246 Z" transform="matrix(6.688776, 0.035921, -0.040189, 8.549361, -744.583923, -477.93866)" style="fill: rgb(255, 255, 255); white-space: pre;"/>
    <path d="M 143.197 -3.36 Q 143.197 -2.735 143.153 -2.133 Q 143.108 -1.531 142.885 -1.055 Q 142.662 -0.58 142.216 -0.29 Q 141.77 0 140.967 0 Q 140.15 0 139.689 -0.275 Q 139.228 -0.55 139.005 -0.944 Q 138.782 -1.338 138.73 -1.769 Q 138.678 -2.2 138.678 -2.497 Q 138.544 -2.066 138.299 -1.62 Q 138.054 -1.174 137.667 -0.818 Q 137.281 -0.461 136.738 -0.23 Q 136.196 0 135.467 0 Q 134.65 0 133.832 -0.268 Q 133.014 -0.535 132.36 -1.16 Q 131.706 -1.784 131.297 -2.787 Q 130.889 -3.791 130.889 -5.262 L 130.889 -9.573 Q 130.889 -11.06 131.297 -12.063 Q 131.706 -13.067 132.36 -13.684 Q 133.014 -14.301 133.832 -14.568 Q 134.65 -14.836 135.467 -14.836 Q 136.196 -14.836 136.738 -14.613 Q 137.281 -14.39 137.667 -14.033 Q 138.054 -13.676 138.299 -13.23 Q 138.544 -12.784 138.678 -12.338 L 138.678 -17.422 Q 138.678 -18.061 138.745 -18.678 Q 138.812 -19.295 139.042 -19.764 Q 139.273 -20.232 139.726 -20.522 Q 140.18 -20.812 140.967 -20.812 Q 141.711 -20.812 142.157 -20.522 Q 142.603 -20.232 142.833 -19.764 Q 143.063 -19.295 143.13 -18.678 Q 143.197 -18.061 143.197 -17.422 Z M 135.467 -5.649 Q 135.467 -5.247 135.497 -4.861 Q 135.527 -4.474 135.66 -4.162 Q 135.794 -3.85 136.054 -3.664 Q 136.315 -3.479 136.775 -3.479 Q 137.355 -3.479 137.719 -3.739 Q 138.084 -3.999 138.292 -4.541 Q 138.5 -5.084 138.582 -5.909 Q 138.663 -6.734 138.678 -7.879 Q 138.678 -8.34 138.596 -8.942 Q 138.515 -9.544 138.307 -10.079 Q 138.098 -10.614 137.727 -10.986 Q 137.355 -11.357 136.775 -11.357 Q 136.315 -11.357 136.054 -11.171 Q 135.794 -10.986 135.66 -10.688 Q 135.527 -10.391 135.497 -10.012 Q 135.467 -9.633 135.467 -9.246 Z" transform="matrix(6.688776, 0.035921, -0.040189, 8.549361, -744.583923, -477.93866)" style="fill: rgb(255, 255, 255); white-space: pre;"/>
    <path d="M 145.988 -9.276 Q 145.988 -10.644 146.36 -11.595 Q 146.732 -12.546 147.319 -13.186 Q 147.906 -13.825 148.627 -14.182 Q 149.348 -14.538 150.047 -14.717 Q 150.745 -14.895 151.347 -14.94 Q 151.949 -14.984 152.291 -14.984 Q 152.633 -14.984 153.228 -14.94 Q 153.822 -14.895 154.499 -14.717 Q 155.175 -14.538 155.866 -14.182 Q 156.558 -13.825 157.115 -13.186 Q 157.673 -12.546 158.029 -11.595 Q 158.386 -10.644 158.386 -9.276 L 158.386 -5.589 Q 158.386 -4.222 158.029 -3.27 Q 157.673 -2.319 157.115 -1.68 Q 156.558 -1.041 155.866 -0.684 Q 155.175 -0.327 154.499 -0.149 Q 153.822 0.03 153.228 0.074 Q 152.633 0.119 152.291 0.119 Q 151.949 0.119 151.347 0.074 Q 150.745 0.03 150.047 -0.149 Q 149.348 -0.327 148.627 -0.684 Q 147.906 -1.041 147.319 -1.68 Q 146.732 -2.319 146.36 -3.27 Q 145.988 -4.222 145.988 -5.589 Z M 150.567 -4.549 Q 150.582 -4.118 150.775 -3.791 Q 150.938 -3.493 151.288 -3.263 Q 151.637 -3.033 152.291 -3.033 Q 152.916 -3.033 153.25 -3.263 Q 153.585 -3.493 153.748 -3.791 Q 153.926 -4.118 153.956 -4.549 L 153.956 -9.93 Q 153.926 -10.376 153.748 -10.748 Q 153.585 -11.045 153.25 -11.305 Q 152.916 -11.565 152.291 -11.565 Q 151.637 -11.565 151.288 -11.305 Q 150.938 -11.045 150.775 -10.748 Q 150.582 -10.376 150.567 -9.93 Z" transform="matrix(6.688776, 0.035921, -0.040189, 8.549361, -744.583923, -477.93866)" style="fill: rgb(255, 255, 255); white-space: pre;"/>
    <path d="M 170.989 -12.636 Q 170.989 -11.476 170.417 -10.941 Q 169.844 -10.406 168.789 -10.406 Q 168.64 -10.406 168.365 -10.384 Q 168.09 -10.361 167.778 -10.265 Q 167.466 -10.168 167.146 -9.982 Q 166.827 -9.796 166.559 -9.477 Q 166.291 -9.157 166.128 -8.667 Q 165.964 -8.176 165.964 -7.492 L 165.964 -3.241 Q 165.964 -2.631 165.898 -2.051 Q 165.831 -1.472 165.593 -1.018 Q 165.355 -0.565 164.909 -0.282 Q 164.463 0 163.705 0 Q 162.962 0 162.531 -0.282 Q 162.099 -0.565 161.869 -1.018 Q 161.639 -1.472 161.572 -2.051 Q 161.505 -2.631 161.505 -3.241 L 161.505 -11.565 Q 161.505 -12.19 161.572 -12.777 Q 161.639 -13.364 161.869 -13.825 Q 162.099 -14.286 162.531 -14.561 Q 162.962 -14.836 163.705 -14.836 Q 164.463 -14.836 164.872 -14.501 Q 165.281 -14.167 165.474 -13.639 Q 165.667 -13.111 165.697 -12.465 Q 165.727 -11.818 165.727 -11.209 L 165.964 -11.209 Q 166.173 -12.041 166.514 -12.717 Q 166.856 -13.394 167.273 -13.862 Q 167.689 -14.33 168.165 -14.583 Q 168.64 -14.836 169.116 -14.836 Q 169.696 -14.836 170.06 -14.709 Q 170.424 -14.583 170.632 -14.315 Q 170.84 -14.048 170.915 -13.632 Q 170.989 -13.215 170.989 -12.636 Z" transform="matrix(6.688776, 0.035921, -0.040189, 8.549361, -744.583923, -477.93866)" style="fill: rgb(255, 255, 255); white-space: pre;"/>
    <path d="M 185.231 -8.473 Q 185.231 -8.235 185.202 -7.916 Q 185.172 -7.596 184.971 -7.306 Q 184.771 -7.016 184.34 -6.808 Q 183.908 -6.6 183.121 -6.6 L 177.204 -6.6 L 177.204 -5.173 Q 177.204 -4.816 177.293 -4.43 Q 177.383 -4.043 177.598 -3.716 Q 177.814 -3.389 178.17 -3.181 Q 178.527 -2.973 179.047 -2.973 Q 179.642 -2.973 179.962 -3.114 Q 180.281 -3.256 180.467 -3.464 Q 180.653 -3.672 180.802 -3.91 Q 180.95 -4.147 181.196 -4.356 Q 181.441 -4.564 181.879 -4.705 Q 182.318 -4.846 183.091 -4.846 Q 183.462 -4.846 183.812 -4.787 Q 184.161 -4.727 184.429 -4.564 Q 184.696 -4.4 184.86 -4.11 Q 185.023 -3.82 185.023 -3.36 Q 185.023 -2.393 184.414 -1.747 Q 183.804 -1.1 182.883 -0.714 Q 181.961 -0.327 180.883 -0.164 Q 179.806 0 178.869 0 Q 177.635 -0.015 176.52 -0.312 Q 175.405 -0.609 174.551 -1.264 Q 173.696 -1.918 173.19 -2.973 Q 172.685 -4.029 172.685 -5.56 L 172.685 -9.038 Q 172.685 -10.45 173.02 -11.432 Q 173.354 -12.413 173.889 -13.067 Q 174.424 -13.721 175.093 -14.085 Q 175.762 -14.449 176.446 -14.628 Q 177.13 -14.806 177.747 -14.851 Q 178.364 -14.895 178.81 -14.895 Q 180.311 -14.895 181.374 -14.628 Q 182.437 -14.36 183.15 -13.929 Q 183.864 -13.498 184.28 -12.933 Q 184.696 -12.368 184.904 -11.766 Q 185.113 -11.164 185.172 -10.547 Q 185.231 -9.93 185.231 -9.395 Z M 177.204 -8.83 L 180.921 -8.83 Q 180.921 -9.529 180.883 -10.071 Q 180.846 -10.614 180.66 -10.986 Q 180.475 -11.357 180.081 -11.55 Q 179.687 -11.744 178.958 -11.744 Q 178.349 -11.744 177.999 -11.55 Q 177.65 -11.357 177.472 -11.067 Q 177.293 -10.777 177.249 -10.45 Q 177.204 -10.123 177.204 -9.871 Z" transform="matrix(6.688776, 0.035921, -0.040189, 8.549361, -744.583923, -477.93866)" style="fill: rgb(255, 255, 255); white-space: pre;"/>
    <path d="M 192.215 -10.971 Q 192.215 -10.673 192.408 -10.421 Q 192.601 -10.168 192.936 -9.938 Q 193.27 -9.707 193.709 -9.484 Q 194.147 -9.261 194.623 -9.038 Q 195.351 -8.681 196.109 -8.273 Q 196.867 -7.864 197.492 -7.314 Q 198.116 -6.764 198.51 -6.043 Q 198.904 -5.322 198.904 -4.341 Q 198.904 -3.449 198.644 -2.765 Q 198.384 -2.081 197.953 -1.583 Q 197.522 -1.085 196.949 -0.758 Q 196.377 -0.431 195.745 -0.238 Q 195.113 -0.045 194.459 0.037 Q 193.805 0.119 193.225 0.119 Q 192.081 0.119 191.233 -0.074 Q 190.386 -0.268 189.777 -0.587 Q 189.167 -0.907 188.773 -1.316 Q 188.379 -1.724 188.156 -2.17 Q 187.933 -2.616 187.844 -3.055 Q 187.755 -3.493 187.755 -3.865 Q 187.755 -4.757 188.253 -5.173 Q 188.751 -5.589 189.777 -5.589 Q 190.52 -5.589 190.996 -5.188 Q 191.471 -4.787 191.501 -3.895 Q 191.516 -3.597 191.672 -3.419 Q 191.828 -3.241 192.073 -3.129 Q 192.319 -3.018 192.616 -2.981 Q 192.913 -2.943 193.196 -2.943 Q 193.775 -2.943 194.14 -3.248 Q 194.504 -3.553 194.504 -4.043 Q 194.504 -4.46 194.259 -4.824 Q 194.013 -5.188 193.612 -5.5 Q 193.211 -5.812 192.698 -6.102 Q 192.185 -6.392 191.65 -6.689 Q 190.981 -7.046 190.304 -7.448 Q 189.628 -7.849 189.078 -8.34 Q 188.528 -8.83 188.186 -9.447 Q 187.844 -10.064 187.844 -10.852 Q 187.844 -12.011 188.223 -12.792 Q 188.602 -13.572 189.331 -14.055 Q 190.059 -14.538 191.107 -14.747 Q 192.155 -14.955 193.493 -14.984 L 193.731 -14.984 Q 194.935 -14.984 195.775 -14.776 Q 196.615 -14.568 197.172 -14.234 Q 197.73 -13.899 198.049 -13.483 Q 198.369 -13.067 198.525 -12.643 Q 198.681 -12.219 198.718 -11.833 Q 198.755 -11.446 198.755 -11.179 Q 198.755 -10.733 198.57 -10.443 Q 198.384 -10.153 198.079 -9.982 Q 197.774 -9.811 197.388 -9.744 Q 197.001 -9.677 196.585 -9.663 Q 196.228 -9.663 195.938 -9.781 Q 195.649 -9.9 195.44 -10.079 Q 195.232 -10.257 195.121 -10.48 Q 195.009 -10.703 195.009 -10.911 Q 194.98 -11.476 194.556 -11.773 Q 194.132 -12.071 193.523 -12.071 Q 193.27 -12.071 193.04 -12.019 Q 192.809 -11.967 192.623 -11.84 Q 192.438 -11.714 192.326 -11.506 Q 192.215 -11.298 192.215 -10.971 Z" transform="matrix(6.688776, 0.035921, -0.040189, 8.549361, -744.583923, -477.93866)" style="fill: rgb(255, 255, 255); white-space: pre;"/>
    <path transform="matrix(3.07028, 0.016488, -0.014493, 3.083096, -322.471924, -187.478882)" style="fill: rgb(51, 51, 51); white-space: pre;"/>
    <g transform="matrix(0.734873, 0.003946, -0.003719, 0.791071, -1145.820068, -753.899841)" style="">
      <path style="fill:#F7910B;" d="M484.8,286.4c0,104-95.2,188-242.4,188S0,390.4,0,286.4s95.2-260,242.4-260S484.8,182.4,484.8,286.4 z"/>
      <path style="fill:#F7910B;" d="M484.8,286.4c0,104-95.2,156-242.4,156S0,390.4,0,286.4s95.2-276,242.4-276S484.8,182.4,484.8,286.4 z"/>
    </g>
    <g transform="matrix(0.734873, 0.003946, -0.003719, 0.791071, -1145.820068, -753.899841)" style="">
      <path style="fill:#F9A908;" d="M242.4,10.4c147.2,0,242.4,172,242.4,276s-95.2,156-242.4,156"/>
      <path style="fill:#F9A908;" d="M484.8,286.4c0,104-95.2,156-242.4,156S0,390.4,0,286.4s95.2-260,242.4-260S484.8,182.4,484.8,286.4 z"/>
    </g>
    <path style="fill: rgb(249, 197, 93);" d="M -1146.401 -526.856 C -1146.401 -609.128 -1076.441 -732.537 -968.265 -732.537" transform="matrix(0.999987, 0.00537, -0.004699, 0.999987, -2.972238, 5.669942)"/>
    <path style="fill: rgb(247, 145, 11);" d="M -968.617 -731.581 C -860.443 -731.581 -790.482 -608.173 -790.482 -525.901 C -790.482 -443.628 -860.443 -377.178 -968.618 -377.178" transform="matrix(0.999987, 0.00537, -0.004699, 0.999987, -2.616085, 4.716196)"/>
    <path style="fill: rgb(0, 35, 63);" d="M -933.371 -548.535 C -933.371 -533.98 -949.833 -521.956 -969.822 -521.956 C -989.81 -521.956 -1006.272 -533.98 -1006.272 -548.535 C -1006.272 -563.091 -989.81 -575.116 -969.822 -575.116 C -949.833 -575.116 -933.371 -563.091 -933.371 -548.535 Z" transform="matrix(0.999987, 0.00537, -0.004699, 0.999987, -2.589767, 5.201028)"/>
    <path style="fill: rgb(234, 113, 3);" d="M -968.267 -731.58 C -860.093 -731.58 -790.132 -608.172 -790.132 -525.9" transform="matrix(0.999987, 0.00537, -0.004699, 0.999987, -2.965494, 4.713377)"/>
    <g transform="matrix(0.734873, 0.003946, -0.003719, 0.791071, -1145.820068, -753.899841)" style="">
      <circle style="fill:#F7910B;" cx="68.8" cy="262.4" r="4.8"/>
      <circle style="fill:#F7910B;" cx="32.8" cy="278.4" r="8.8"/>
      <circle style="fill:#F7910B;" cx="56.8" cy="246.4" r="1.6"/>
      <circle style="fill:#F7910B;" cx="93.6" cy="260.8" r="1.6"/>
    </g>
    <g transform="matrix(0.734873, 0.003946, -0.003719, 0.791071, -1145.820068, -753.899841)" style="">
      <circle style="fill:#F9A908;" cx="407.2" cy="264.8" r="6.4"/>
      <circle style="fill:#F9A908;" cx="427.2" cy="276" r="1.6"/>
      <circle style="fill:#F9A908;" cx="384.8" cy="205.6" r="2.4"/>
      <circle style="fill:#F9A908;" cx="380.8" cy="298.4" r="10.4"/>
      <circle style="fill:#F9A908;" cx="438.4" cy="299.2" r="4.8"/>
    </g>
    <g transform="matrix(0.734873, 0.003946, -0.003719, 0.791071, -1145.820068, -753.899841)" style="">
      <circle style="fill:#F7910B;" cx="60.8" cy="294.4" r="4"/>
      <circle style="fill:#F7910B;" cx="67.2" cy="227.2" r="3.2"/>
    </g>
    <g transform="matrix(0.734873, 0.003946, -0.003719, 0.791071, -1145.820068, -753.899841)" style="">
      <circle style="fill:#F9A908;" cx="24.8" cy="116.8" r="8.8"/>
      <circle style="fill:#F9A908;" cx="50.4" cy="88.8" r="4.8"/>
      <circle style="fill:#F9A908;" cx="460" cy="136" r="1.6"/>
      <circle style="fill:#F9A908;" cx="453.6" cy="112.8" r="6.4"/>
      <path style="fill:#F9A908;" d="M478.4,116.8c0,2.4-1.6,4-4,4s-4-1.6-4-4c0-2.4,1.6-4,4-4C476,112.8,478.4,115.2,478.4,116.8z"/>
      <circle style="fill:#F9A908;" cx="34.4" cy="140.8" r="4.8"/>
    </g>
    <path style="fill: rgb(247, 145, 11);" d="M -925.278 -542.201 C -925.278 -525.747 -944.679 -496.635 -968.783 -496.635 C -992.887 -496.635 -1012.287 -525.747 -1012.287 -542.201" transform="matrix(0.999987, 0.00537, -0.004699, 0.999987, -2.452931, 5.195816)"/>
    <g transform="matrix(0.734873, 0.003946, -0.003719, 0.791071, -1145.820068, -753.899841)" style="">
      <circle style="fill:#D87703;" cx="151.2" cy="156.8" r="28"/>
      <path style="fill:#D87703;" d="M361.6,156.8c0,15.2-12.8,28-28,28s-28-12.8-28-28s12.8-28,28-28 C349.6,128.8,361.6,141.6,361.6,156.8z"/>
    </g>
    <circle style="fill: rgb(30, 71, 132);" cx="151.2" cy="148.8" r="28" transform="matrix(0.734873, 0.003946, -0.003719, 0.791071, -1145.820068, -753.899841)"/>
    <path style="fill: rgb(0, 35, 63);" d="M -1035.258 -657.685 C -1024.088 -657.685 -1014.683 -647.559 -1014.683 -635.535 C -1014.683 -623.51 -1024.088 -613.386 -1035.258 -613.386" transform="matrix(0.999987, 0.00537, -0.004699, 0.999987, -2.999266, 5.496082)"/>
    <path style="fill: rgb(30, 71, 132);" d="M -880.642 -634.87 C -880.642 -622.846 -890.048 -612.721 -901.218 -612.721 C -912.388 -612.721 -921.795 -622.846 -921.795 -634.87 C -921.795 -646.894 -912.388 -657.021 -901.218 -657.021 C -889.46 -657.021 -880.641 -646.894 -880.642 -634.87 Z" transform="matrix(0.999987, 0.00537, -0.004699, 0.999987, -2.994581, 4.831542)"/>
    <path style="fill: rgb(0, 35, 63);" d="M -901.218 -656.965 C -890.048 -656.965 -880.642 -646.839 -880.642 -634.816 C -880.642 -622.791 -890.048 -612.665 -901.218 -612.665" transform="matrix(0.999987, 0.00537, -0.004699, 0.999987, -2.994188, 4.776293)"/>
    <path style="fill: rgb(249, 169, 8);" d="M -1059.266 -640.02 C -1059.266 -654.576 -1048.683 -672.296 -1035.162 -672.296 C -1021.64 -672.296 -1011.058 -654.576 -1011.058 -640.02" transform="matrix(0.999987, 0.00537, -0.004699, 0.999987, -3.096298, 5.55055)"/>
    <path style="fill: rgb(247, 145, 11);" d="M -925.225 -639.3 C -925.225 -653.856 -914.643 -671.576 -901.121 -671.576 C -888.188 -671.576 -877.017 -653.856 -877.017 -639.3" transform="matrix(0.999987, 0.00537, -0.004699, 0.999987, -3.091222, 4.830759)"/>
    <path style="fill: rgb(249, 197, 93);" d="M -993.082 -598.903 C -993.082 -591.309 -1013.658 -594.473 -1038.938 -594.473 C -1064.219 -594.473 -1084.795 -590.676 -1084.795 -598.903 C -1084.795 -607.13 -1064.219 -612.827 -1038.938 -612.827 C -1013.658 -612.827 -993.082 -606.498 -993.082 -598.903 Z" transform="matrix(0.999987, 0.00537, -0.004699, 0.999987, -2.84756, 5.571497)"/>
    <path style="fill: rgb(249, 169, 8);" d="M -851.986 -598.146 C -851.986 -590.552 -872.563 -593.715 -897.843 -593.715 C -923.123 -593.715 -943.7 -589.918 -943.7 -598.146 C -943.7 -606.373 -923.123 -612.069 -897.843 -612.069 C -872.563 -612.069 -851.986 -605.74 -851.986 -598.146 Z" transform="matrix(0.999987, 0.00537, -0.004699, 0.999987, -2.842217, 4.813824)"/>
    <g transform="matrix(0.734873, 0.003946, -0.003719, 0.791071, -1145.820068, -753.899841)" style="">
      <path style="fill:#19BCA4;" d="M196,118.4c0,8.8-18.4,4-40.8,3.2s-40.8,3.2-40.8-5.6s18.4-16,40.8-15.2 C178.4,101.6,196.8,109.6,196,118.4z"/>
      <path style="fill:#19BCA4;" d="M288.8,118.4c0,8.8,18.4,4,40.8,3.2s40.8,3.2,40.8-5.6s-18.4-16-40.8-15.2 C306.4,101.6,288,109.6,288.8,118.4z"/>
    </g>
    <path style="fill: rgb(255, 253, 243);" d="M -984.638 -557.824 C -981.698 -550.863 -984.05 -542.635 -990.517 -539.47 L -1097.515 -482.513 C -1103.982 -479.349 -1111.625 -481.88 -1114.565 -488.842 C -1117.504 -495.803 -1115.152 -504.03 -1108.686 -507.827 L -1001.687 -564.785 C -995.807 -567.95 -988.165 -564.785 -984.638 -557.824 Z" transform="matrix(0.999987, 0.00537, -0.004699, 0.999987, -2.473557, 5.62976)"/>
    <path style="fill: rgb(223, 246, 247);" d="M -984.657 -557.82 C -981.717 -550.859 -984.069 -542.632 -990.536 -539.467 L -1097.535 -482.51 C -1104.002 -479.345 -1111.644 -481.876 -1114.584 -488.839" transform="matrix(0.999987, 0.00537, -0.004699, 0.999987, -2.454288, 5.626555)"/>
    <path style="fill: rgb(247, 85, 47);" d="M -1109.998 -506.856 C -1115.878 -503.058 -1118.23 -495.464 -1115.29 -488.503 C -1112.351 -482.174 -1104.708 -479.009 -1098.829 -482.174 C -1092.949 -485.971 -1090.598 -493.565 -1093.538 -500.528 C -1096.476 -506.856 -1104.12 -510.019 -1109.998 -506.856 Z" transform="matrix(0.999987, 0.00537, -0.004699, 0.999987, -2.337624, 5.924471)"/>
    <path style="fill: rgb(224, 52, 5);" d="M -1098.826 -482.157 C -1092.947 -485.953 -1090.595 -493.548 -1093.535 -500.509 C -1096.475 -506.838 -1104.117 -510.002 -1109.996 -506.838" transform="matrix(0.999987, 0.00537, -0.004699, 0.999987, -2.340419, 5.906843)"/>
    <path style="fill: rgb(117, 65, 8);" d="M -997.488 -566.49 L -1048.047 -539.278 C -1041.58 -542.442 -1033.937 -539.911 -1030.997 -532.949 C -1028.059 -525.987 -1030.41 -517.76 -1036.877 -514.596 L -986.318 -541.809 C -979.851 -544.973 -977.499 -553.833 -980.439 -560.162 C -983.378 -567.124 -991.021 -570.288 -997.488 -566.49 Z" transform="matrix(0.999987, 0.00537, -0.004699, 0.999987, -2.556579, 5.436302)"/>
    <path style="fill: rgb(147, 89, 20);" d="M -1002.204 -563.985 L -1052.764 -536.771 C -1046.297 -539.936 -1038.654 -537.404 -1035.715 -530.443 C -1032.776 -523.482 -1035.126 -515.255 -1041.593 -511.457 L -991.034 -538.67 C -984.567 -541.834 -982.215 -550.694 -985.155 -557.024 C -988.094 -564.617 -995.737 -567.781 -1002.204 -563.985 Z" transform="matrix(0.999987, 0.00537, -0.004699, 0.999987, -2.543339, 5.461666)"/>
    <path style="fill: rgb(117, 65, 8);" d="M -1052.781 -537.404 C -1046.314 -540.569 -1038.672 -538.038 -1035.732 -531.075 C -1032.792 -524.114 -1035.144 -515.887 -1041.612 -512.09 L -991.051 -539.303 C -984.584 -542.468 -982.233 -551.328 -985.171 -557.656" transform="matrix(0.999987, 0.00537, -0.004699, 0.999987, -2.526178, 5.461803)"/>
    <path style="fill: rgb(223, 246, 247);" d="M -1023.417 -537.511 C -1026.356 -544.472 -1034.587 -547.004 -1041.055 -543.84 L -1054.576 -536.245 C -1048.109 -539.41 -1040.466 -536.878 -1037.527 -529.917 C -1034.587 -522.956 -1036.939 -514.728 -1043.405 -511.563 L -1029.884 -519.158 C -1022.829 -522.322 -1019.89 -530.549 -1023.417 -537.511 Z" transform="matrix(0.999987, 0.00537, -0.004699, 0.999987, -2.495895, 5.56874)"/>
    <g transform="matrix(0.734873, 0.003946, -0.003719, 0.791071, -1145.820068, -753.899841)" style="">
      <path style="fill:#FFFDF3;" d="M62.4,231.2c0,3.2-2.4,6.4-6.4,6.4l0,0c-3.2-0.8-5.6-3.2-5.6-6.4v-64c0-3.2,2.4-6.4,6.4-6.4l0,0 c3.2,0,6.4,2.4,6.4,6.4v64H62.4z"/>
      <path style="fill:#FFFDF3;" d="M87.2,280c0,3.2-2.4,6.4-6.4,6.4l0,0c-3.2,0-6.4-2.4-6.4-6.4v-64c0-3.2,2.4-6.4,6.4-6.4l0,0 c3.2,0,6.4,2.4,6.4,6.4V280z"/>
      <circle style="fill:#FFFDF3;" cx="34.4" cy="252.8" r="4.8"/>
      <circle style="fill:#FFFDF3;" cx="72" cy="144" r="4.8"/>
      <circle style="fill:#FFFDF3;" cx="56" cy="280.8" r="7.2"/>
      <circle style="fill:#FFFDF3;" cx="68" cy="110.4" r="14.4"/>
      <circle style="fill:#FFFDF3;" cx="32.8" cy="220" r="7.2"/>
      <circle style="fill:#FFFDF3;" cx="34.4" cy="297.6" r="5.6"/>
      <circle style="fill:#FFFDF3;" cx="75.2" cy="190.4" r="1.6"/>
    </g>
    <g transform="matrix(0.734873, 0.003946, -0.003719, 0.791071, -1145.820068, -753.899841)" style=""/>
    <g transform="matrix(0.734873, 0.003946, -0.003719, 0.791071, -1145.820068, -753.899841)" style=""/>
    <g transform="matrix(0.734873, 0.003946, -0.003719, 0.791071, -1145.820068, -753.899841)" style=""/>
    <g transform="matrix(0.734873, 0.003946, -0.003719, 0.791071, -1145.820068, -753.899841)" style=""/>
    <g transform="matrix(0.734873, 0.003946, -0.003719, 0.791071, -1145.820068, -753.899841)" style=""/>
    <g transform="matrix(0.734873, 0.003946, -0.003719, 0.791071, -1145.820068, -753.899841)" style=""/>
    <g transform="matrix(0.734873, 0.003946, -0.003719, 0.791071, -1145.820068, -753.899841)" style=""/>
    <g transform="matrix(0.734873, 0.003946, -0.003719, 0.791071, -1145.820068, -753.899841)" style=""/>
    <g transform="matrix(0.734873, 0.003946, -0.003719, 0.791071, -1145.820068, -753.899841)" style=""/>
    <g transform="matrix(0.734873, 0.003946, -0.003719, 0.791071, -1145.820068, -753.899841)" style=""/>
    <g transform="matrix(0.734873, 0.003946, -0.003719, 0.791071, -1145.820068, -753.899841)" style=""/>
    <g transform="matrix(0.734873, 0.003946, -0.003719, 0.791071, -1145.820068, -753.899841)" style=""/>
    <g transform="matrix(0.734873, 0.003946, -0.003719, 0.791071, -1145.820068, -753.899841)" style=""/>
    <g transform="matrix(0.734873, 0.003946, -0.003719, 0.791071, -1145.820068, -753.899841)" style=""/>
    <g transform="matrix(0.734873, 0.003946, -0.003719, 0.791071, -1145.820068, -753.899841)" style=""/>
    <path transform="matrix(2.496587, 0.013407, -0.012546, 2.668919, 563.350586, -547.619141)" style="fill: rgb(51, 51, 51); white-space: pre;"/>
  </g>
</svg>