<?xml version="1.0" encoding="utf-8"?>
<svg viewBox="0 170.613 500 123.743" xmlns="http://www.w3.org/2000/svg">
  <g transform="matrix(0.266548, -0.001339, 0.001253, 0.249337, 330.431768, 373.15241)" style="">
    <path transform="matrix(3.042146, 0.016337, -0.015288, 3.252136, -340.609314, -988.74884)" style="fill: rgb(51, 51, 51); white-space: pre;"/>
    <g style="isolation: isolate;" transform="matrix(1.785333, 0.009587, -0.013993, 2.976591, -599.392395, -1032.456177)"/>
    <path d="M 2.497 -17.393 Q 2.497 -18.032 2.564 -18.641 Q 2.631 -19.251 2.876 -19.734 Q 3.122 -20.217 3.612 -20.514 Q 4.103 -20.812 4.965 -20.812 Q 5.827 -20.812 6.318 -20.514 Q 6.808 -20.217 7.054 -19.734 Q 7.299 -19.251 7.366 -18.641 Q 7.433 -18.032 7.433 -17.393 L 7.433 -3.419 Q 7.433 -2.765 7.373 -2.155 Q 7.314 -1.546 7.069 -1.063 Q 6.823 -0.58 6.325 -0.29 Q 5.827 0 4.965 0 Q 4.103 0 3.612 -0.29 Q 3.122 -0.58 2.876 -1.063 Q 2.631 -1.546 2.564 -2.155 Q 2.497 -2.765 2.497 -3.419 Z" transform="matrix(7.436287, 0.039935, -0.040189, 8.549361, -744.583923, -477.93866)" style="fill: rgb(255, 255, 255); white-space: pre;"/>
    <path d="M 24.259 -3.389 Q 24.259 -2.75 24.185 -2.141 Q 24.111 -1.531 23.865 -1.055 Q 23.62 -0.58 23.167 -0.29 Q 22.713 0 21.94 0 Q 21.182 0 20.736 -0.29 Q 20.29 -0.58 20.052 -1.055 Q 19.815 -1.531 19.748 -2.141 Q 19.681 -2.75 19.681 -3.389 L 19.681 -9.187 Q 19.681 -9.603 19.644 -10.004 Q 19.606 -10.406 19.473 -10.711 Q 19.339 -11.015 19.079 -11.201 Q 18.819 -11.387 18.373 -11.387 Q 17.763 -11.387 17.392 -10.986 Q 17.02 -10.584 16.804 -9.886 Q 16.589 -9.187 16.514 -8.243 Q 16.44 -7.299 16.44 -6.214 L 16.44 -3.389 Q 16.44 -2.75 16.366 -2.141 Q 16.291 -1.531 16.046 -1.055 Q 15.801 -0.58 15.348 -0.29 Q 14.894 0 14.121 0 Q 13.363 0 12.917 -0.29 Q 12.471 -0.58 12.233 -1.055 Q 11.995 -1.531 11.928 -2.141 Q 11.862 -2.75 11.862 -3.389 L 11.862 -11.506 Q 11.862 -12.145 11.906 -12.747 Q 11.951 -13.349 12.174 -13.817 Q 12.397 -14.286 12.85 -14.576 Q 13.304 -14.865 14.121 -14.865 Q 14.939 -14.865 15.4 -14.59 Q 15.86 -14.315 16.091 -13.929 Q 16.321 -13.542 16.381 -13.111 Q 16.44 -12.68 16.44 -12.368 Q 16.559 -12.799 16.812 -13.245 Q 17.064 -13.691 17.458 -14.048 Q 17.852 -14.405 18.402 -14.635 Q 18.952 -14.865 19.681 -14.865 Q 20.498 -14.865 21.316 -14.598 Q 22.134 -14.33 22.788 -13.706 Q 23.442 -13.082 23.851 -12.071 Q 24.259 -11.06 24.259 -9.573 Z" transform="matrix(7.436287, 0.039935, -0.040189, 8.549361, -744.583923, -477.93866)" style="fill: rgb(255, 255, 255); white-space: pre;"/>
    <path d="M 34.365 -14.865 Q 34.737 -14.865 35.123 -14.821 Q 35.51 -14.776 35.815 -14.598 Q 36.119 -14.419 36.313 -14.048 Q 36.506 -13.676 36.506 -13.022 Q 36.506 -12.413 36.313 -12.063 Q 36.119 -11.714 35.815 -11.528 Q 35.51 -11.342 35.123 -11.29 Q 34.737 -11.238 34.365 -11.238 L 33.473 -11.238 L 33.473 -3.36 Q 33.473 -2.706 33.406 -2.103 Q 33.34 -1.501 33.094 -1.033 Q 32.849 -0.565 32.381 -0.282 Q 31.913 0 31.125 0 Q 30.367 0 29.928 -0.282 Q 29.489 -0.565 29.266 -1.033 Q 29.043 -1.501 28.984 -2.103 Q 28.925 -2.706 28.925 -3.36 L 28.925 -11.238 L 28.092 -11.238 Q 27.676 -11.238 27.297 -11.29 Q 26.918 -11.342 26.628 -11.528 Q 26.338 -11.714 26.16 -12.063 Q 25.981 -12.413 25.981 -13.022 Q 25.981 -13.676 26.16 -14.048 Q 26.338 -14.419 26.628 -14.598 Q 26.918 -14.776 27.297 -14.821 Q 27.676 -14.865 28.092 -14.865 L 28.925 -14.865 Q 28.925 -16.174 29.043 -17.274 Q 29.162 -18.374 29.623 -19.154 Q 30.084 -19.935 30.991 -20.373 Q 31.898 -20.812 33.473 -20.812 Q 34.142 -20.812 34.737 -20.693 Q 35.332 -20.574 35.778 -20.321 Q 36.223 -20.068 36.484 -19.66 Q 36.744 -19.251 36.744 -18.671 Q 36.744 -18.136 36.558 -17.779 Q 36.372 -17.422 36.105 -17.199 Q 35.837 -16.976 35.517 -16.887 Q 35.198 -16.798 34.93 -16.798 Q 34.707 -16.798 34.514 -16.902 Q 34.321 -17.006 34.068 -17.006 Q 33.86 -17.006 33.748 -16.872 Q 33.637 -16.738 33.57 -16.515 Q 33.503 -16.293 33.488 -16.025 Q 33.473 -15.757 33.473 -15.49 L 33.473 -14.865 Z" transform="matrix(7.436287, 0.039935, -0.040189, 8.549361, -744.583923, -477.93866)" style="fill: rgb(255, 255, 255); white-space: pre;"/>
    <path d="M 38.285 -9.276 Q 38.285 -10.644 38.657 -11.595 Q 39.028 -12.546 39.616 -13.186 Q 40.203 -13.825 40.924 -14.182 Q 41.645 -14.538 42.343 -14.717 Q 43.042 -14.895 43.644 -14.94 Q 44.246 -14.984 44.588 -14.984 Q 44.93 -14.984 45.525 -14.94 Q 46.119 -14.895 46.796 -14.717 Q 47.472 -14.538 48.163 -14.182 Q 48.854 -13.825 49.412 -13.186 Q 49.969 -12.546 50.326 -11.595 Q 50.683 -10.644 50.683 -9.276 L 50.683 -5.589 Q 50.683 -4.222 50.326 -3.27 Q 49.969 -2.319 49.412 -1.68 Q 48.854 -1.041 48.163 -0.684 Q 47.472 -0.327 46.796 -0.149 Q 46.119 0.03 45.525 0.074 Q 44.93 0.119 44.588 0.119 Q 44.246 0.119 43.644 0.074 Q 43.042 0.03 42.343 -0.149 Q 41.645 -0.327 40.924 -0.684 Q 40.203 -1.041 39.616 -1.68 Q 39.028 -2.319 38.657 -3.27 Q 38.285 -4.222 38.285 -5.589 Z M 42.864 -4.549 Q 42.878 -4.118 43.072 -3.791 Q 43.235 -3.493 43.585 -3.263 Q 43.934 -3.033 44.588 -3.033 Q 45.212 -3.033 45.547 -3.263 Q 45.881 -3.493 46.045 -3.791 Q 46.223 -4.118 46.253 -4.549 L 46.253 -9.93 Q 46.223 -10.376 46.045 -10.748 Q 45.881 -11.045 45.547 -11.305 Q 45.212 -11.565 44.588 -11.565 Q 43.934 -11.565 43.585 -11.305 Q 43.235 -11.045 43.072 -10.748 Q 42.878 -10.376 42.864 -9.93 Z" transform="matrix(7.436287, 0.039935, -0.040189, 8.549361, -744.583923, -477.93866)" style="fill: rgb(255, 255, 255); white-space: pre;"/>
    <path d="M 58.738 -2.468 Q 58.738 -1.204 58.099 -0.602 Q 57.46 0 56.301 0 Q 55.111 0 54.472 -0.602 Q 53.833 -1.204 53.833 -2.468 Q 53.833 -3.746 54.472 -4.326 Q 55.111 -4.906 56.301 -4.906 Q 57.534 -4.906 58.136 -4.326 Q 58.738 -3.746 58.738 -2.468 Z" transform="matrix(7.436287, 0.039935, -0.040189, 8.549361, -744.583923, -477.93866)" style="fill: rgb(255, 255, 255); white-space: pre;"/>
    <path d="M 66.589 -8.979 L 71.316 -8.979 L 69.116 -16.947 L 68.789 -16.947 Z M 75.925 -7.522 Q 75.954 -6.511 75.999 -5.456 Q 76.044 -4.4 76.044 -3.419 L 76.044 -2.973 Q 76.044 -2.408 76.006 -1.88 Q 75.969 -1.353 75.776 -0.929 Q 75.583 -0.505 75.166 -0.253 Q 74.75 0 73.992 0 Q 73.219 0 72.803 -0.253 Q 72.387 -0.505 72.186 -0.922 Q 71.985 -1.338 71.948 -1.873 Q 71.911 -2.408 71.911 -2.973 L 71.911 -5.054 L 65.965 -5.054 L 65.965 -2.973 Q 65.965 -2.408 65.928 -1.873 Q 65.89 -1.338 65.69 -0.922 Q 65.489 -0.505 65.073 -0.253 Q 64.657 0 63.884 0 Q 63.111 0 62.694 -0.253 Q 62.278 -0.505 62.085 -0.929 Q 61.892 -1.353 61.862 -1.88 Q 61.832 -2.408 61.832 -2.973 L 61.832 -3.419 Q 61.832 -3.88 61.84 -4.4 Q 61.847 -4.92 61.862 -5.456 Q 61.877 -5.991 61.892 -6.518 Q 61.906 -7.046 61.921 -7.522 Q 62.665 -10.108 63.482 -12.762 Q 64.3 -15.415 65.043 -18.017 Q 65.192 -18.567 65.4 -19.08 Q 65.608 -19.593 65.95 -19.972 Q 66.292 -20.351 66.827 -20.581 Q 67.362 -20.812 68.195 -20.812 L 69.681 -20.812 Q 70.499 -20.812 71.041 -20.581 Q 71.584 -20.351 71.926 -19.972 Q 72.268 -19.593 72.468 -19.08 Q 72.669 -18.567 72.833 -18.017 Z" transform="matrix(7.436287, 0.039935, -0.040189, 8.549361, -744.583923, -477.93866)" style="fill: rgb(255, 255, 255); white-space: pre;"/>
    <path d="M 79.223 -17.511 Q 79.223 -18.136 79.29 -18.73 Q 79.357 -19.325 79.595 -19.786 Q 79.833 -20.247 80.279 -20.529 Q 80.725 -20.812 81.483 -20.812 Q 82.256 -20.812 82.702 -20.529 Q 83.148 -20.247 83.378 -19.786 Q 83.608 -19.325 83.675 -18.73 Q 83.742 -18.136 83.742 -17.511 L 83.742 -3.33 Q 83.742 -2.706 83.675 -2.103 Q 83.608 -1.501 83.378 -1.033 Q 83.148 -0.565 82.702 -0.282 Q 82.256 0 81.483 0 Q 80.725 0 80.279 -0.282 Q 79.833 -0.565 79.595 -1.033 Q 79.357 -1.501 79.29 -2.103 Q 79.223 -2.706 79.223 -3.33 Z" transform="matrix(7.436287, 0.039935, -0.040189, 8.549361, -744.583923, -477.93866)" style="fill: rgb(255, 255, 255); white-space: pre;"/>
    <path d="M 99.706 2.557 Q 99.706 3.211 99.639 3.82 Q 99.572 4.43 99.341 4.898 Q 99.111 5.366 98.665 5.656 Q 98.219 5.946 97.476 5.946 Q 96.688 5.946 96.234 5.656 Q 95.781 5.366 95.551 4.898 Q 95.32 4.43 95.253 3.82 Q 95.186 3.211 95.186 2.557 L 95.186 -2.527 Q 95.053 -2.081 94.807 -1.635 Q 94.562 -1.189 94.176 -0.832 Q 93.789 -0.476 93.246 -0.253 Q 92.704 -0.03 91.975 -0.03 Q 91.158 -0.03 90.34 -0.297 Q 89.523 -0.565 88.869 -1.182 Q 88.215 -1.799 87.806 -2.802 Q 87.397 -3.806 87.397 -5.292 L 87.397 -9.603 Q 87.397 -11.075 87.806 -12.078 Q 88.215 -13.082 88.869 -13.706 Q 89.523 -14.33 90.34 -14.598 Q 91.158 -14.865 91.975 -14.865 Q 92.704 -14.865 93.246 -14.635 Q 93.789 -14.405 94.176 -14.048 Q 94.562 -13.691 94.807 -13.245 Q 95.053 -12.799 95.186 -12.368 Q 95.186 -12.665 95.238 -13.096 Q 95.29 -13.528 95.513 -13.921 Q 95.736 -14.315 96.197 -14.59 Q 96.658 -14.865 97.476 -14.865 Q 98.278 -14.865 98.724 -14.576 Q 99.17 -14.286 99.393 -13.81 Q 99.616 -13.334 99.661 -12.732 Q 99.706 -12.13 99.706 -11.506 Z M 91.975 -5.619 Q 91.975 -5.233 92.005 -4.854 Q 92.035 -4.474 92.169 -4.177 Q 92.303 -3.88 92.563 -3.694 Q 92.823 -3.508 93.284 -3.508 Q 93.863 -3.508 94.235 -3.872 Q 94.607 -4.237 94.815 -4.772 Q 95.023 -5.307 95.105 -5.909 Q 95.186 -6.511 95.186 -6.987 Q 95.172 -8.117 95.09 -8.949 Q 95.008 -9.781 94.8 -10.324 Q 94.592 -10.867 94.228 -11.127 Q 93.863 -11.387 93.284 -11.387 Q 92.823 -11.387 92.563 -11.201 Q 92.303 -11.015 92.169 -10.703 Q 92.035 -10.391 92.005 -10.004 Q 91.975 -9.618 91.975 -9.217 Z" transform="matrix(7.436287, 0.039935, -0.040189, 8.549361, -744.583923, -477.93866)" style="fill: rgb(255, 255, 255); white-space: pre;"/>
    <path d="M 103.395 -11.476 Q 103.395 -12.115 103.47 -12.725 Q 103.544 -13.334 103.789 -13.81 Q 104.035 -14.286 104.488 -14.576 Q 104.941 -14.865 105.714 -14.865 Q 106.473 -14.865 106.919 -14.576 Q 107.364 -14.286 107.602 -13.81 Q 107.84 -13.334 107.907 -12.725 Q 107.974 -12.115 107.974 -11.476 L 107.974 -5.679 Q 107.974 -5.247 108.011 -4.854 Q 108.048 -4.46 108.182 -4.155 Q 108.316 -3.85 108.576 -3.664 Q 108.836 -3.479 109.282 -3.479 Q 109.877 -3.479 110.256 -3.88 Q 110.635 -4.281 110.85 -4.98 Q 111.066 -5.679 111.14 -6.623 Q 111.215 -7.567 111.215 -8.652 L 111.215 -11.476 Q 111.215 -12.115 111.289 -12.725 Q 111.363 -13.334 111.609 -13.81 Q 111.854 -14.286 112.307 -14.576 Q 112.761 -14.865 113.534 -14.865 Q 114.292 -14.865 114.738 -14.576 Q 115.184 -14.286 115.422 -13.81 Q 115.659 -13.334 115.726 -12.725 Q 115.793 -12.115 115.793 -11.476 L 115.793 -3.36 Q 115.793 -2.72 115.749 -2.118 Q 115.704 -1.516 115.481 -1.048 Q 115.258 -0.58 114.805 -0.29 Q 114.351 0 113.534 0 Q 112.716 0 112.255 -0.275 Q 111.794 -0.55 111.564 -0.937 Q 111.334 -1.323 111.274 -1.754 Q 111.215 -2.185 111.215 -2.497 Q 111.096 -2.066 110.843 -1.62 Q 110.59 -1.174 110.196 -0.818 Q 109.802 -0.461 109.252 -0.23 Q 108.702 0 107.974 0 Q 107.156 0 106.339 -0.268 Q 105.521 -0.535 104.867 -1.16 Q 104.213 -1.784 103.804 -2.795 Q 103.395 -3.806 103.395 -5.292 Z" transform="matrix(7.436287, 0.039935, -0.040189, 8.549361, -744.583923, -477.93866)" style="fill: rgb(255, 255, 255); white-space: pre;"/>
    <path d="M 119.921 -11.536 Q 119.921 -12.16 119.988 -12.755 Q 120.055 -13.349 120.293 -13.817 Q 120.531 -14.286 120.977 -14.576 Q 121.423 -14.865 122.181 -14.865 Q 122.939 -14.865 123.385 -14.576 Q 123.831 -14.286 124.069 -13.817 Q 124.307 -13.349 124.374 -12.755 Q 124.44 -12.16 124.44 -11.536 L 124.44 -3.33 Q 124.44 -2.706 124.374 -2.103 Q 124.307 -1.501 124.069 -1.033 Q 123.831 -0.565 123.385 -0.282 Q 122.939 0 122.181 0 Q 121.423 0 120.977 -0.282 Q 120.531 -0.565 120.293 -1.033 Q 120.055 -1.501 119.988 -2.103 Q 119.921 -2.706 119.921 -3.33 Z M 124.47 -18.552 Q 124.47 -17.407 123.876 -16.85 Q 123.281 -16.293 122.211 -16.293 Q 121.14 -16.293 120.546 -16.85 Q 119.951 -17.407 119.951 -18.552 Q 119.951 -19.741 120.546 -20.276 Q 121.14 -20.812 122.211 -20.812 Q 123.355 -20.812 123.913 -20.276 Q 124.47 -19.741 124.47 -18.552 Z" transform="matrix(7.436287, 0.039935, -0.040189, 8.549361, -744.583923, -477.93866)" style="fill: rgb(255, 255, 255); white-space: pre;"/>
    <path d="M 129.017 -17.511 Q 129.017 -18.136 129.084 -18.73 Q 129.151 -19.325 129.389 -19.786 Q 129.627 -20.247 130.073 -20.529 Q 130.519 -20.812 131.277 -20.812 Q 132.05 -20.812 132.496 -20.529 Q 132.942 -20.247 133.172 -19.786 Q 133.403 -19.325 133.47 -18.73 Q 133.536 -18.136 133.536 -17.511 L 133.536 -3.33 Q 133.536 -2.706 133.47 -2.103 Q 133.403 -1.501 133.172 -1.033 Q 132.942 -0.565 132.496 -0.282 Q 132.05 0 131.277 0 Q 130.519 0 130.073 -0.282 Q 129.627 -0.565 129.389 -1.033 Q 129.151 -1.501 129.084 -2.103 Q 129.017 -2.706 129.017 -3.33 Z" transform="matrix(7.436287, 0.039935, -0.040189, 8.549361, -744.583923, -477.93866)" style="fill: rgb(255, 255, 255); white-space: pre;"/>
    <path d="M 149.559 -8.473 Q 149.559 -8.235 149.529 -7.916 Q 149.5 -7.596 149.299 -7.306 Q 149.098 -7.016 148.667 -6.808 Q 148.236 -6.6 147.448 -6.6 L 141.532 -6.6 L 141.532 -5.173 Q 141.532 -4.816 141.621 -4.43 Q 141.71 -4.043 141.926 -3.716 Q 142.141 -3.389 142.498 -3.181 Q 142.855 -2.973 143.375 -2.973 Q 143.97 -2.973 144.289 -3.114 Q 144.609 -3.256 144.795 -3.464 Q 144.981 -3.672 145.129 -3.91 Q 145.278 -4.147 145.523 -4.356 Q 145.769 -4.564 146.207 -4.705 Q 146.646 -4.846 147.419 -4.846 Q 147.79 -4.846 148.14 -4.787 Q 148.489 -4.727 148.756 -4.564 Q 149.024 -4.4 149.188 -4.11 Q 149.351 -3.82 149.351 -3.36 Q 149.351 -2.393 148.742 -1.747 Q 148.132 -1.1 147.21 -0.714 Q 146.289 -0.327 145.211 -0.164 Q 144.133 0 143.197 0 Q 141.963 -0.015 140.848 -0.312 Q 139.733 -0.609 138.878 -1.264 Q 138.024 -1.918 137.518 -2.973 Q 137.013 -4.029 137.013 -5.56 L 137.013 -9.038 Q 137.013 -10.45 137.347 -11.432 Q 137.682 -12.413 138.217 -13.067 Q 138.752 -13.721 139.421 -14.085 Q 140.09 -14.449 140.774 -14.628 Q 141.458 -14.806 142.074 -14.851 Q 142.691 -14.895 143.137 -14.895 Q 144.639 -14.895 145.702 -14.628 Q 146.765 -14.36 147.478 -13.929 Q 148.192 -13.498 148.608 -12.933 Q 149.024 -12.368 149.232 -11.766 Q 149.44 -11.164 149.5 -10.547 Q 149.559 -9.93 149.559 -9.395 Z M 141.532 -8.83 L 145.248 -8.83 Q 145.248 -9.529 145.211 -10.071 Q 145.174 -10.614 144.988 -10.986 Q 144.802 -11.357 144.408 -11.55 Q 144.014 -11.744 143.286 -11.744 Q 142.677 -11.744 142.327 -11.55 Q 141.978 -11.357 141.799 -11.067 Q 141.621 -10.777 141.576 -10.45 Q 141.532 -10.123 141.532 -9.871 Z" transform="matrix(7.436287, 0.039935, -0.040189, 8.549361, -744.583923, -477.93866)" style="fill: rgb(255, 255, 255); white-space: pre;"/>
    <path d="M 162.256 -12.636 Q 162.256 -11.476 161.684 -10.941 Q 161.112 -10.406 160.056 -10.406 Q 159.908 -10.406 159.633 -10.384 Q 159.358 -10.361 159.045 -10.265 Q 158.733 -10.168 158.414 -9.982 Q 158.094 -9.796 157.826 -9.477 Q 157.559 -9.157 157.395 -8.667 Q 157.232 -8.176 157.232 -7.492 L 157.232 -3.241 Q 157.232 -2.631 157.165 -2.051 Q 157.098 -1.472 156.86 -1.018 Q 156.622 -0.565 156.176 -0.282 Q 155.73 0 154.972 0 Q 154.229 0 153.798 -0.282 Q 153.367 -0.565 153.136 -1.018 Q 152.906 -1.472 152.839 -2.051 Q 152.772 -2.631 152.772 -3.241 L 152.772 -11.565 Q 152.772 -12.19 152.839 -12.777 Q 152.906 -13.364 153.136 -13.825 Q 153.367 -14.286 153.798 -14.561 Q 154.229 -14.836 154.972 -14.836 Q 155.73 -14.836 156.139 -14.501 Q 156.548 -14.167 156.741 -13.639 Q 156.935 -13.111 156.964 -12.465 Q 156.994 -11.818 156.994 -11.209 L 157.232 -11.209 Q 157.44 -12.041 157.782 -12.717 Q 158.124 -13.394 158.54 -13.862 Q 158.956 -14.33 159.432 -14.583 Q 159.908 -14.836 160.383 -14.836 Q 160.963 -14.836 161.327 -14.709 Q 161.691 -14.583 161.9 -14.315 Q 162.108 -14.048 162.182 -13.632 Q 162.256 -13.215 162.256 -12.636 Z" transform="matrix(7.436287, 0.039935, -0.040189, 8.549361, -744.583923, -477.93866)" style="fill: rgb(255, 255, 255); white-space: pre;"/>
    <g transform="matrix(0.734873, 0.003946, -0.003719, 0.791071, -1145.820068, -753.899841)" style=""/>
    <g transform="matrix(0.734873, 0.003946, -0.003719, 0.791071, -1145.820068, -753.899841)" style=""/>
    <g transform="matrix(0.734873, 0.003946, -0.003719, 0.791071, -1145.820068, -753.899841)" style=""/>
    <g transform="matrix(0.734873, 0.003946, -0.003719, 0.791071, -1145.820068, -753.899841)" style=""/>
    <g transform="matrix(0.734873, 0.003946, -0.003719, 0.791071, -1145.820068, -753.899841)" style=""/>
    <g transform="matrix(0.734873, 0.003946, -0.003719, 0.791071, -1145.820068, -753.899841)" style=""/>
    <g transform="matrix(0.734873, 0.003946, -0.003719, 0.791071, -1145.820068, -753.899841)" style=""/>
    <g transform="matrix(0.734873, 0.003946, -0.003719, 0.791071, -1145.820068, -753.899841)" style=""/>
    <g transform="matrix(0.734873, 0.003946, -0.003719, 0.791071, -1145.820068, -753.899841)" style=""/>
    <g transform="matrix(0.734873, 0.003946, -0.003719, 0.791071, -1145.820068, -753.899841)" style=""/>
    <g transform="matrix(0.734873, 0.003946, -0.003719, 0.791071, -1145.820068, -753.899841)" style=""/>
    <g transform="matrix(0.734873, 0.003946, -0.003719, 0.791071, -1145.820068, -753.899841)" style=""/>
    <g transform="matrix(0.734873, 0.003946, -0.003719, 0.791071, -1145.820068, -753.899841)" style=""/>
    <g transform="matrix(0.734873, 0.003946, -0.003719, 0.791071, -1145.820068, -753.899841)" style=""/>
    <g transform="matrix(0.734873, 0.003946, -0.003719, 0.791071, -1145.820068, -753.899841)" style=""/>
    <g transform="matrix(0.943232, 0.005066, -0.004544, 0.96661, -1142.615601, -768.914429)" style="">
      <path style="fill:#010002;" d="M92.723,274.945c-3.178,3.178-5.747,9.388-5.747,13.875v58.444h33.929v-92.373 c0-4.487-2.569-5.56-5.747-2.382L92.723,274.945z"/>
      <path style="fill:#010002;" d="M241.752,219.573c-3.17,3.178-5.747,9.389-5.747,13.884v113.816h33.929V199.487 c0-4.487-2.569-5.552-5.747-2.374L241.752,219.573z"/>
      <path style="fill:#010002;" d="M291.418,169.834c-3.178,3.17-5.755,9.38-5.755,13.867v163.563h31.547V152.212 c0-4.487-2.577-5.56-5.755-2.382L291.418,169.834z"/>
      <path style="fill:#010002;" d="M193.078,268.239c0,0-1.512,1.52-3.381,3.39c-1.861,1.87-3.373,7.031-3.373,11.518v64.118h33.929 v-98.047c0-4.487-2.577-5.56-5.755-2.382L193.078,268.239z"/>
      <path style="fill:#010002;" d="M142.405,250.998c-3.178-3.17-5.755-2.105-5.755,2.382v93.885h33.929v-60.03 c0-4.487-2.439-10.559-5.454-13.558l-5.454-5.43L142.405,250.998z"/>
      <path style="fill:#010002;" d="M50.023,317.669l-10.957,10.974c-3.17,3.178-5.739,8.633-5.739,12.193v6.438h37.871V304.59 c0-4.487-2.569-5.552-5.747-2.374L50.023,317.669z"/>
      <path style="fill:#010002;" d="M358.121,150.724c3.17,3.178,5.747,2.105,5.747-2.382V32.193c0-8.316-7.966-15.599-16.233-15.599 H232.16c-4.487,0-5.56,2.577-2.382,5.755l41.074,41.106l-16.753,16.68l-77.701,77.774L135.3,116.82 c-3.178-3.178-8.316-3.17-11.494,0L9.519,231.189C-3.178,243.894-3.17,264.484,9.527,277.18l0.797,0.805 c12.697,12.697,33.287,12.697,45.975-0.008l73.247-73.287l41.098,41.057c3.178,3.17,8.324,3.17,11.502,0l135.479-135.503 L358.121,150.724z"/>
    </g>
    <g transform="matrix(0.943232, 0.005066, -0.004544, 0.96661, -1142.615601, -768.914429)" style=""/>
    <g transform="matrix(0.943232, 0.005066, -0.004544, 0.96661, -1142.615601, -768.914429)" style=""/>
    <g transform="matrix(0.943232, 0.005066, -0.004544, 0.96661, -1142.615601, -768.914429)" style=""/>
    <g transform="matrix(0.943232, 0.005066, -0.004544, 0.96661, -1142.615601, -768.914429)" style=""/>
    <g transform="matrix(0.943232, 0.005066, -0.004544, 0.96661, -1142.615601, -768.914429)" style=""/>
    <g transform="matrix(0.943232, 0.005066, -0.004544, 0.96661, -1142.615601, -768.914429)" style=""/>
    <g transform="matrix(0.943232, 0.005066, -0.004544, 0.96661, -1142.615601, -768.914429)" style=""/>
    <g transform="matrix(0.943232, 0.005066, -0.004544, 0.96661, -1142.615601, -768.914429)" style=""/>
    <g transform="matrix(0.943232, 0.005066, -0.004544, 0.96661, -1142.615601, -768.914429)" style=""/>
    <g transform="matrix(0.943232, 0.005066, -0.004544, 0.96661, -1142.615601, -768.914429)" style=""/>
    <g transform="matrix(0.943232, 0.005066, -0.004544, 0.96661, -1142.615601, -768.914429)" style=""/>
    <g transform="matrix(0.943232, 0.005066, -0.004544, 0.96661, -1142.615601, -768.914429)" style=""/>
    <g transform="matrix(0.943232, 0.005066, -0.004544, 0.96661, -1142.615601, -768.914429)" style=""/>
    <g transform="matrix(0.943232, 0.005066, -0.004544, 0.96661, -1142.615601, -768.914429)" style=""/>
    <g transform="matrix(0.943232, 0.005066, -0.004544, 0.96661, -1142.615601, -768.914429)" style=""/>
  </g>
</svg>