<?xml version="1.0" encoding="utf-8"?>
<svg viewBox="0 170.613 500 123.743" xmlns="http://www.w3.org/2000/svg">
  <g transform="matrix(0.266548, -0.001339, 0.001253, 0.249337, 330.431768, 373.15241)" style="">
    <g transform="matrix(0.684922, 0, 0, 0.678222, -1159.011719, -730.450317)" style="">
      <g id="XMLID_36_">
        <g>
          <polygon style="fill:#AFB6BB;" points="480,335 480,370 10,370 10,335 25,335 465,335 &#9;&#9;&#9;&#9;"/>
          <rect x="200" y="10" style="fill:#AFB6BB;" width="90" height="35"/>
          <polygon style="fill:#FFFFFF;" points="465,45 465,335 25,335 25,45 200,45 290,45 &#9;&#9;&#9;&#9;"/>
        </g>
        <path style="fill:#231F20;" d="M480,325h-5V45c0-5.523-4.477-10-10-10H300V10c0-5.523-4.477-10-10-10h-90 c-5.523,0-10,4.477-10,10v25H25c-5.523,0-10,4.477-10,10v280h-5c-5.523,0-10,4.477-10,10v35c0,5.523,4.477,10,10,10h152.338 l-50.913,84.855l17.149,10.29L185.662,380H235v110h20V380h49.338l57.087,95.145l17.149-10.29L327.662,380H480 c5.523,0,10-4.477,10-10v-35C490,329.477,485.523,325,480,325z M210,20h70v15h-70V20z M35,55h420v270H35V55z M470,360H20v-15h450 V360z"/>
      </g>
    </g>
    <g id="XMLID_35_" transform="matrix(0.665046, 0.000217, 0.000183, 0.601334, -1163.628784, -711.054932)" style="">
      <g>
        <path style="fill:#AFB6BB;" d="M260,190h-90v-90C219.7,100,260,140.3,260,190z"/>
        <path style="fill:#43B05C;" d="M260,190c0,49.7-40.3,90-90,90s-90-40.3-90-90s40.3-90,90-90v90H260z"/>
      </g>
      <path style="fill:#231F20;" d="M170,90c-55.14,0-100,44.86-100,100s44.86,100,100,100s100-44.86,100-100S225.14,90,170,90z M249.353,180H180v-69.353C216.128,115.176,244.824,143.872,249.353,180z M170,270c-44.112,0-80-35.888-80-80 c0-40.724,30.593-74.413,70-79.353V190c0,5.523,4.477,10,10,10h79.353C244.413,239.407,210.724,270,170,270z"/>
    </g>
    <g transform="matrix(0.665046, 0.000217, 0.000183, 0.601334, -1163.628784, -711.054932)" style="">
      <rect x="345" y="130" style="fill:#231F20;" width="70" height="20"/>
    </g>
    <g transform="matrix(0.665046, 0.000217, 0.000183, 0.601334, -1163.628784, -711.054932)" style="">
      <rect x="345" y="160" style="fill:#231F20;" width="70" height="20"/>
    </g>
    <g transform="matrix(0.665046, 0.000217, 0.000183, 0.601334, -1163.628784, -711.054932)" style="">
      <rect x="345" y="190" style="fill:#231F20;" width="70" height="20"/>
    </g>
    <g transform="matrix(0.665046, 0.000217, 0.000183, 0.601334, -1163.628784, -711.054932)" style="">
      <rect x="345" y="100" style="fill:#231F20;" width="45" height="20"/>
    </g>
    <g transform="matrix(0.665046, 0.000217, 0.000183, 0.601334, -1163.628784, -711.054932)" style="">
      <path style="fill:#231F20;" d="M272.071,132.071l-14.143-14.143l15-15c1.875-1.875,4.419-2.929,7.071-2.929h45v20h-40.858 L272.071,132.071z"/>
    </g>
    <g transform="matrix(0.665046, 0.000217, 0.000183, 0.601334, -1163.628784, -711.054932)" style="">
      <rect x="310" y="235" style="fill:#231F20;" width="115" height="20"/>
    </g>
    <g transform="matrix(0.665046, 0.000217, 0.000183, 0.601334, -1163.628784, -711.054932)" style="">
      <rect x="280" y="270" style="fill:#231F20;" width="145" height="20"/>
    </g>
    <path transform="matrix(3.042146, 0.016337, -0.015288, 3.252136, -340.609314, -988.74884)" style="fill: rgb(51, 51, 51); white-space: pre;"/>
    <g style="isolation: isolate;" transform="matrix(1.785333, 0.009587, -0.013993, 2.976591, -599.392395, -1032.456177)"/>
    <rect width="176.433337" height="133.117368" rx="28" ry="28" transform="matrix(3.428883, 0.02733, -0.033105, 4.745552, -2146.826137, -594.413137)" paint-order="stroke fill markers" fill="#16171a" stroke-width="0" stroke-linejoin="round"/>
    <path d="M 2.497 -17.393 Q 2.497 -18.032 2.564 -18.641 Q 2.631 -19.251 2.876 -19.734 Q 3.122 -20.217 3.612 -20.514 Q 4.103 -20.812 4.965 -20.812 Q 5.827 -20.812 6.318 -20.514 Q 6.808 -20.217 7.054 -19.734 Q 7.299 -19.251 7.366 -18.641 Q 7.433 -18.032 7.433 -17.393 L 7.433 -3.419 Q 7.433 -2.765 7.373 -2.155 Q 7.314 -1.546 7.069 -1.063 Q 6.823 -0.58 6.325 -0.29 Q 5.827 0 4.965 0 Q 4.103 0 3.612 -0.29 Q 3.122 -0.58 2.876 -1.063 Q 2.631 -1.546 2.564 -2.155 Q 2.497 -2.765 2.497 -3.419 Z" transform="matrix(7.01829, 0.037691, -0.040189, 8.549361, -744.583923, -477.93866)" style="fill: rgb(255, 255, 255); white-space: pre;"/>
    <path d="M 24.258 -3.389 Q 24.258 -2.75 24.184 -2.141 Q 24.11 -1.531 23.864 -1.055 Q 23.619 -0.58 23.166 -0.29 Q 22.712 0 21.939 0 Q 21.181 0 20.735 -0.29 Q 20.289 -0.58 20.051 -1.055 Q 19.814 -1.531 19.747 -2.141 Q 19.68 -2.75 19.68 -3.389 L 19.68 -9.187 Q 19.68 -9.603 19.643 -10.004 Q 19.605 -10.406 19.472 -10.711 Q 19.338 -11.015 19.078 -11.201 Q 18.818 -11.387 18.372 -11.387 Q 17.762 -11.387 17.39 -10.986 Q 17.019 -10.584 16.803 -9.886 Q 16.588 -9.187 16.513 -8.243 Q 16.439 -7.299 16.439 -6.214 L 16.439 -3.389 Q 16.439 -2.75 16.365 -2.141 Q 16.29 -1.531 16.045 -1.055 Q 15.8 -0.58 15.346 -0.29 Q 14.893 0 14.12 0 Q 13.362 0 12.916 -0.29 Q 12.47 -0.58 12.232 -1.055 Q 11.994 -1.531 11.927 -2.141 Q 11.86 -2.75 11.86 -3.389 L 11.86 -11.506 Q 11.86 -12.145 11.905 -12.747 Q 11.95 -13.349 12.173 -13.817 Q 12.396 -14.286 12.849 -14.576 Q 13.302 -14.865 14.12 -14.865 Q 14.938 -14.865 15.398 -14.59 Q 15.859 -14.315 16.09 -13.929 Q 16.32 -13.542 16.38 -13.111 Q 16.439 -12.68 16.439 -12.368 Q 16.558 -12.799 16.811 -13.245 Q 17.063 -13.691 17.457 -14.048 Q 17.851 -14.405 18.401 -14.635 Q 18.951 -14.865 19.68 -14.865 Q 20.497 -14.865 21.315 -14.598 Q 22.133 -14.33 22.787 -13.706 Q 23.441 -13.082 23.849 -12.071 Q 24.258 -11.06 24.258 -9.573 Z" transform="matrix(7.01829, 0.037691, -0.040189, 8.549361, -744.583923, -477.93866)" style="fill: rgb(255, 255, 255); white-space: pre;"/>
    <path d="M 34.364 -14.865 Q 34.736 -14.865 35.122 -14.821 Q 35.509 -14.776 35.813 -14.598 Q 36.118 -14.419 36.311 -14.048 Q 36.505 -13.676 36.505 -13.022 Q 36.505 -12.413 36.311 -12.063 Q 36.118 -11.714 35.813 -11.528 Q 35.509 -11.342 35.122 -11.29 Q 34.736 -11.238 34.364 -11.238 L 33.472 -11.238 L 33.472 -3.36 Q 33.472 -2.706 33.405 -2.103 Q 33.338 -1.501 33.093 -1.033 Q 32.848 -0.565 32.379 -0.282 Q 31.911 0 31.123 0 Q 30.365 0 29.927 -0.282 Q 29.488 -0.565 29.265 -1.033 Q 29.042 -1.501 28.983 -2.103 Q 28.923 -2.706 28.923 -3.36 L 28.923 -11.238 L 28.091 -11.238 Q 27.674 -11.238 27.295 -11.29 Q 26.916 -11.342 26.626 -11.528 Q 26.337 -11.714 26.158 -12.063 Q 25.98 -12.413 25.98 -13.022 Q 25.98 -13.676 26.158 -14.048 Q 26.337 -14.419 26.626 -14.598 Q 26.916 -14.776 27.295 -14.821 Q 27.674 -14.865 28.091 -14.865 L 28.923 -14.865 Q 28.923 -16.174 29.042 -17.274 Q 29.161 -18.374 29.622 -19.154 Q 30.083 -19.935 30.989 -20.373 Q 31.896 -20.812 33.472 -20.812 Q 34.141 -20.812 34.736 -20.693 Q 35.33 -20.574 35.776 -20.321 Q 36.222 -20.068 36.482 -19.66 Q 36.742 -19.251 36.742 -18.671 Q 36.742 -18.136 36.557 -17.779 Q 36.371 -17.422 36.103 -17.199 Q 35.836 -16.976 35.516 -16.887 Q 35.196 -16.798 34.929 -16.798 Q 34.706 -16.798 34.513 -16.902 Q 34.319 -17.006 34.067 -17.006 Q 33.858 -17.006 33.747 -16.872 Q 33.636 -16.738 33.569 -16.515 Q 33.502 -16.293 33.487 -16.025 Q 33.472 -15.757 33.472 -15.49 L 33.472 -14.865 Z" transform="matrix(7.01829, 0.037691, -0.040189, 8.549361, -744.583923, -477.93866)" style="fill: rgb(255, 255, 255); white-space: pre;"/>
    <path d="M 38.284 -9.276 Q 38.284 -10.644 38.656 -11.595 Q 39.027 -12.546 39.615 -13.186 Q 40.202 -13.825 40.923 -14.182 Q 41.644 -14.538 42.342 -14.717 Q 43.041 -14.895 43.643 -14.94 Q 44.245 -14.984 44.587 -14.984 Q 44.929 -14.984 45.524 -14.94 Q 46.118 -14.895 46.795 -14.717 Q 47.471 -14.538 48.162 -14.182 Q 48.854 -13.825 49.411 -13.186 Q 49.968 -12.546 50.325 -11.595 Q 50.682 -10.644 50.682 -9.276 L 50.682 -5.589 Q 50.682 -4.222 50.325 -3.27 Q 49.968 -2.319 49.411 -1.68 Q 48.854 -1.041 48.162 -0.684 Q 47.471 -0.327 46.795 -0.149 Q 46.118 0.03 45.524 0.074 Q 44.929 0.119 44.587 0.119 Q 44.245 0.119 43.643 0.074 Q 43.041 0.03 42.342 -0.149 Q 41.644 -0.327 40.923 -0.684 Q 40.202 -1.041 39.615 -1.68 Q 39.027 -2.319 38.656 -3.27 Q 38.284 -4.222 38.284 -5.589 Z M 42.863 -4.549 Q 42.878 -4.118 43.071 -3.791 Q 43.234 -3.493 43.584 -3.263 Q 43.933 -3.033 44.587 -3.033 Q 45.212 -3.033 45.546 -3.263 Q 45.88 -3.493 46.044 -3.791 Q 46.222 -4.118 46.252 -4.549 L 46.252 -9.93 Q 46.222 -10.376 46.044 -10.748 Q 45.88 -11.045 45.546 -11.305 Q 45.212 -11.565 44.587 -11.565 Q 43.933 -11.565 43.584 -11.305 Q 43.234 -11.045 43.071 -10.748 Q 42.878 -10.376 42.863 -9.93 Z" transform="matrix(7.01829, 0.037691, -0.040189, 8.549361, -744.583923, -477.93866)" style="fill: rgb(255, 255, 255); white-space: pre;"/>
    <path d="M 58.739 -2.468 Q 58.739 -1.204 58.1 -0.602 Q 57.46 0 56.301 0 Q 55.112 0 54.472 -0.602 Q 53.833 -1.204 53.833 -2.468 Q 53.833 -3.746 54.472 -4.326 Q 55.112 -4.906 56.301 -4.906 Q 57.535 -4.906 58.137 -4.326 Q 58.739 -3.746 58.739 -2.468 Z" transform="matrix(7.01829, 0.037691, -0.040189, 8.549361, -744.583923, -477.93866)" style="fill: rgb(255, 255, 255); white-space: pre;"/>
    <path d="M 68.995 -20.931 Q 70.63 -20.931 71.812 -20.559 Q 72.994 -20.187 73.804 -19.593 Q 74.614 -18.998 75.105 -18.247 Q 75.595 -17.497 75.855 -16.724 Q 76.115 -15.951 76.197 -15.237 Q 76.279 -14.524 76.279 -14.003 Q 76.279 -13.78 76.242 -13.461 Q 76.205 -13.141 75.982 -12.844 Q 75.759 -12.546 75.276 -12.338 Q 74.792 -12.13 73.9 -12.13 Q 73.603 -12.13 73.157 -12.167 Q 72.711 -12.205 72.295 -12.361 Q 71.879 -12.517 71.581 -12.807 Q 71.284 -13.096 71.284 -13.617 Q 71.284 -14.419 71.188 -15.059 Q 71.091 -15.698 70.838 -16.144 Q 70.585 -16.59 70.14 -16.828 Q 69.694 -17.066 68.995 -17.066 Q 68.266 -17.066 67.873 -16.761 Q 67.479 -16.456 67.3 -16.099 Q 67.092 -15.668 67.062 -15.133 L 67.062 -5.708 Q 67.092 -5.054 67.3 -4.564 Q 67.479 -4.133 67.873 -3.776 Q 68.266 -3.419 68.995 -3.419 Q 69.694 -3.419 70.14 -3.709 Q 70.585 -3.999 70.838 -4.489 Q 71.091 -4.98 71.188 -5.619 Q 71.284 -6.258 71.284 -6.957 Q 71.284 -7.18 71.358 -7.418 Q 71.433 -7.656 71.7 -7.856 Q 71.968 -8.057 72.488 -8.191 Q 73.009 -8.325 73.9 -8.325 Q 74.792 -8.325 75.276 -8.124 Q 75.759 -7.923 75.982 -7.663 Q 76.205 -7.403 76.242 -7.158 Q 76.279 -6.912 76.279 -6.838 Q 76.279 -5.203 75.729 -3.917 Q 75.179 -2.631 74.175 -1.739 Q 73.172 -0.847 71.782 -0.379 Q 70.392 0.089 68.727 0.089 Q 68.46 0.089 67.858 0.045 Q 67.256 0 66.512 -0.193 Q 65.769 -0.387 64.981 -0.773 Q 64.193 -1.16 63.547 -1.851 Q 62.9 -2.542 62.484 -3.575 Q 62.068 -4.608 62.068 -6.095 L 62.068 -14.39 Q 62.068 -15.609 62.365 -16.545 Q 62.662 -17.482 63.145 -18.173 Q 63.628 -18.864 64.253 -19.332 Q 64.877 -19.801 65.531 -20.113 Q 67.048 -20.826 68.995 -20.931 Z" transform="matrix(7.01829, 0.037691, -0.040189, 8.549361, -744.583923, -477.93866)" style="fill: rgb(255, 255, 255); white-space: pre;"/>
    <path d="M 78.388 -9.276 Q 78.388 -10.644 78.76 -11.595 Q 79.132 -12.546 79.719 -13.186 Q 80.306 -13.825 81.027 -14.182 Q 81.748 -14.538 82.447 -14.717 Q 83.145 -14.895 83.747 -14.94 Q 84.349 -14.984 84.691 -14.984 Q 85.033 -14.984 85.628 -14.94 Q 86.222 -14.895 86.899 -14.717 Q 87.575 -14.538 88.266 -14.182 Q 88.958 -13.825 89.515 -13.186 Q 90.073 -12.546 90.429 -11.595 Q 90.786 -10.644 90.786 -9.276 L 90.786 -5.589 Q 90.786 -4.222 90.429 -3.27 Q 90.073 -2.319 89.515 -1.68 Q 88.958 -1.041 88.266 -0.684 Q 87.575 -0.327 86.899 -0.149 Q 86.222 0.03 85.628 0.074 Q 85.033 0.119 84.691 0.119 Q 84.349 0.119 83.747 0.074 Q 83.145 0.03 82.447 -0.149 Q 81.748 -0.327 81.027 -0.684 Q 80.306 -1.041 79.719 -1.68 Q 79.132 -2.319 78.76 -3.27 Q 78.388 -4.222 78.388 -5.589 Z M 82.967 -4.549 Q 82.982 -4.118 83.175 -3.791 Q 83.339 -3.493 83.688 -3.263 Q 84.037 -3.033 84.691 -3.033 Q 85.316 -3.033 85.65 -3.263 Q 85.985 -3.493 86.148 -3.791 Q 86.327 -4.118 86.356 -4.549 L 86.356 -9.93 Q 86.327 -10.376 86.148 -10.748 Q 85.985 -11.045 85.65 -11.305 Q 85.316 -11.565 84.691 -11.565 Q 84.037 -11.565 83.688 -11.305 Q 83.339 -11.045 83.175 -10.748 Q 82.982 -10.376 82.967 -9.93 Z" transform="matrix(7.01829, 0.037691, -0.040189, 8.549361, -744.583923, -477.93866)" style="fill: rgb(255, 255, 255); white-space: pre;"/>
    <path d="M 103.957 0 Q 103.199 0 102.753 -0.29 Q 102.307 -0.58 102.069 -1.055 Q 101.831 -1.531 101.764 -2.133 Q 101.697 -2.735 101.697 -3.36 L 101.697 -9.246 Q 101.697 -9.648 101.66 -10.034 Q 101.623 -10.421 101.489 -10.718 Q 101.355 -11.015 101.095 -11.201 Q 100.835 -11.387 100.389 -11.387 Q 99.794 -11.387 99.423 -10.986 Q 99.051 -10.584 98.836 -9.893 Q 98.62 -9.202 98.538 -8.265 Q 98.456 -7.329 98.456 -6.243 L 98.456 -3.36 Q 98.456 -2.735 98.39 -2.133 Q 98.323 -1.531 98.092 -1.055 Q 97.862 -0.58 97.416 -0.29 Q 96.97 0 96.197 0 Q 95.424 0 94.978 -0.29 Q 94.532 -0.58 94.302 -1.055 Q 94.071 -1.531 94.004 -2.133 Q 93.937 -2.735 93.937 -3.36 L 93.937 -11.506 Q 93.937 -12.13 93.989 -12.732 Q 94.041 -13.334 94.264 -13.81 Q 94.487 -14.286 94.941 -14.576 Q 95.394 -14.865 96.197 -14.865 Q 97.014 -14.865 97.468 -14.59 Q 97.921 -14.315 98.144 -13.921 Q 98.367 -13.528 98.412 -13.096 Q 98.456 -12.665 98.456 -12.368 Q 98.59 -12.799 98.88 -13.245 Q 99.17 -13.691 99.616 -14.048 Q 100.062 -14.405 100.642 -14.635 Q 101.221 -14.865 101.935 -14.865 Q 102.916 -14.865 103.838 -14.39 Q 104.759 -13.914 105.413 -12.844 Q 105.636 -13.349 106.068 -13.728 Q 106.499 -14.107 107.049 -14.36 Q 107.599 -14.613 108.223 -14.739 Q 108.847 -14.865 109.457 -14.865 Q 110.274 -14.865 111.092 -14.598 Q 111.91 -14.33 112.564 -13.706 Q 113.218 -13.082 113.627 -12.078 Q 114.035 -11.075 114.035 -9.603 L 114.035 -3.36 Q 114.035 -2.735 113.961 -2.133 Q 113.887 -1.531 113.649 -1.055 Q 113.411 -0.58 112.958 -0.29 Q 112.504 0 111.746 0 Q 110.973 0 110.52 -0.29 Q 110.066 -0.58 109.828 -1.055 Q 109.591 -1.531 109.524 -2.133 Q 109.457 -2.735 109.457 -3.36 L 109.457 -9.246 Q 109.457 -9.648 109.412 -10.034 Q 109.368 -10.421 109.234 -10.718 Q 109.1 -11.015 108.833 -11.201 Q 108.565 -11.387 108.119 -11.387 Q 107.643 -11.387 107.309 -11.09 Q 106.974 -10.792 106.751 -10.272 Q 106.528 -9.752 106.409 -9.031 Q 106.291 -8.31 106.246 -7.462 L 106.246 -3.36 Q 106.246 -2.735 106.179 -2.133 Q 106.112 -1.531 105.874 -1.055 Q 105.636 -0.58 105.183 -0.29 Q 104.73 0 103.957 0 Z" transform="matrix(7.01829, 0.037691, -0.040189, 8.549361, -744.583923, -477.93866)" style="fill: rgb(255, 255, 255); white-space: pre;"/>
    <path d="M 117.749 -11.506 Q 117.749 -12.13 117.794 -12.732 Q 117.839 -13.334 118.062 -13.81 Q 118.285 -14.286 118.731 -14.576 Q 119.177 -14.865 119.979 -14.865 Q 120.797 -14.865 121.258 -14.59 Q 121.719 -14.315 121.942 -13.921 Q 122.164 -13.528 122.217 -13.096 Q 122.269 -12.665 122.269 -12.368 Q 122.402 -12.799 122.648 -13.245 Q 122.893 -13.691 123.279 -14.048 Q 123.666 -14.405 124.208 -14.635 Q 124.751 -14.865 125.479 -14.865 Q 126.297 -14.865 127.115 -14.598 Q 127.932 -14.33 128.586 -13.706 Q 129.24 -13.082 129.649 -12.078 Q 130.058 -11.075 130.058 -9.603 L 130.058 -5.292 Q 130.058 -3.806 129.649 -2.802 Q 129.24 -1.799 128.586 -1.182 Q 127.932 -0.565 127.115 -0.297 Q 126.297 -0.03 125.479 -0.03 Q 124.751 -0.03 124.208 -0.253 Q 123.666 -0.476 123.279 -0.832 Q 122.893 -1.189 122.648 -1.635 Q 122.402 -2.081 122.269 -2.527 L 122.269 2.557 Q 122.269 3.211 122.202 3.82 Q 122.135 4.43 121.904 4.898 Q 121.674 5.366 121.213 5.656 Q 120.752 5.946 119.979 5.946 Q 119.236 5.946 118.79 5.656 Q 118.344 5.366 118.114 4.898 Q 117.883 4.43 117.816 3.82 Q 117.749 3.211 117.749 2.557 Z M 125.479 -9.217 Q 125.479 -9.618 125.45 -10.004 Q 125.42 -10.391 125.286 -10.703 Q 125.152 -11.015 124.892 -11.201 Q 124.632 -11.387 124.171 -11.387 Q 123.592 -11.387 123.227 -11.127 Q 122.863 -10.867 122.655 -10.324 Q 122.447 -9.781 122.365 -8.949 Q 122.283 -8.117 122.269 -6.987 Q 122.269 -6.511 122.35 -5.909 Q 122.432 -5.307 122.64 -4.772 Q 122.848 -4.237 123.22 -3.872 Q 123.592 -3.508 124.171 -3.508 Q 124.632 -3.508 124.892 -3.694 Q 125.152 -3.88 125.286 -4.177 Q 125.42 -4.474 125.45 -4.854 Q 125.479 -5.233 125.479 -5.619 Z" transform="matrix(7.01829, 0.037691, -0.040189, 8.549361, -744.583923, -477.93866)" style="fill: rgb(255, 255, 255); white-space: pre;"/>
    <path d="M 133.657 -17.511 Q 133.657 -18.136 133.724 -18.73 Q 133.791 -19.325 134.029 -19.786 Q 134.266 -20.247 134.712 -20.529 Q 135.158 -20.812 135.917 -20.812 Q 136.69 -20.812 137.135 -20.529 Q 137.581 -20.247 137.812 -19.786 Q 138.042 -19.325 138.109 -18.73 Q 138.176 -18.136 138.176 -17.511 L 138.176 -3.33 Q 138.176 -2.706 138.109 -2.103 Q 138.042 -1.501 137.812 -1.033 Q 137.581 -0.565 137.135 -0.282 Q 136.69 0 135.917 0 Q 135.158 0 134.712 -0.282 Q 134.266 -0.565 134.029 -1.033 Q 133.791 -1.501 133.724 -2.103 Q 133.657 -2.706 133.657 -3.33 Z" transform="matrix(7.01829, 0.037691, -0.040189, 8.549361, -744.583923, -477.93866)" style="fill: rgb(255, 255, 255); white-space: pre;"/>
    <path d="M 154.198 -8.473 Q 154.198 -8.235 154.168 -7.916 Q 154.138 -7.596 153.937 -7.306 Q 153.737 -7.016 153.306 -6.808 Q 152.875 -6.6 152.087 -6.6 L 146.17 -6.6 L 146.17 -5.173 Q 146.17 -4.816 146.259 -4.43 Q 146.349 -4.043 146.564 -3.716 Q 146.78 -3.389 147.137 -3.181 Q 147.493 -2.973 148.014 -2.973 Q 148.608 -2.973 148.928 -3.114 Q 149.247 -3.256 149.433 -3.464 Q 149.619 -3.672 149.768 -3.91 Q 149.916 -4.147 150.162 -4.356 Q 150.407 -4.564 150.845 -4.705 Q 151.284 -4.846 152.057 -4.846 Q 152.429 -4.846 152.778 -4.787 Q 153.127 -4.727 153.395 -4.564 Q 153.662 -4.4 153.826 -4.11 Q 153.989 -3.82 153.989 -3.36 Q 153.989 -2.393 153.38 -1.747 Q 152.771 -1.1 151.849 -0.714 Q 150.927 -0.327 149.849 -0.164 Q 148.772 0 147.835 0 Q 146.601 -0.015 145.486 -0.312 Q 144.372 -0.609 143.517 -1.264 Q 142.662 -1.918 142.157 -2.973 Q 141.651 -4.029 141.651 -5.56 L 141.651 -9.038 Q 141.651 -10.45 141.986 -11.432 Q 142.32 -12.413 142.855 -13.067 Q 143.39 -13.721 144.059 -14.085 Q 144.728 -14.449 145.412 -14.628 Q 146.096 -14.806 146.713 -14.851 Q 147.33 -14.895 147.776 -14.895 Q 149.277 -14.895 150.34 -14.628 Q 151.403 -14.36 152.116 -13.929 Q 152.83 -13.498 153.246 -12.933 Q 153.662 -12.368 153.871 -11.766 Q 154.079 -11.164 154.138 -10.547 Q 154.198 -9.93 154.198 -9.395 Z M 146.17 -8.83 L 149.887 -8.83 Q 149.887 -9.529 149.849 -10.071 Q 149.812 -10.614 149.626 -10.986 Q 149.441 -11.357 149.047 -11.55 Q 148.653 -11.744 147.924 -11.744 Q 147.315 -11.744 146.966 -11.55 Q 146.616 -11.357 146.438 -11.067 Q 146.259 -10.777 146.215 -10.45 Q 146.17 -10.123 146.17 -9.871 Z" transform="matrix(7.01829, 0.037691, -0.040189, 8.549361, -744.583923, -477.93866)" style="fill: rgb(255, 255, 255); white-space: pre;"/>
    <path d="M 159.284 -14.865 L 159.284 -17.482 Q 159.284 -18.106 159.351 -18.701 Q 159.418 -19.295 159.656 -19.764 Q 159.894 -20.232 160.34 -20.522 Q 160.786 -20.812 161.544 -20.812 Q 162.287 -20.812 162.733 -20.522 Q 163.179 -20.232 163.409 -19.764 Q 163.64 -19.295 163.707 -18.701 Q 163.773 -18.106 163.773 -17.482 L 163.773 -14.865 L 164.992 -14.865 Q 165.379 -14.865 165.765 -14.828 Q 166.152 -14.791 166.457 -14.613 Q 166.761 -14.434 166.947 -14.078 Q 167.133 -13.721 167.133 -13.082 Q 167.133 -12.472 166.947 -12.115 Q 166.761 -11.759 166.457 -11.58 Q 166.152 -11.402 165.765 -11.35 Q 165.379 -11.298 164.992 -11.298 L 163.773 -11.298 L 163.773 -6.095 Q 163.773 -5.798 163.796 -5.463 Q 163.818 -5.129 163.952 -4.846 Q 164.086 -4.564 164.353 -4.378 Q 164.621 -4.192 165.111 -4.192 Q 165.647 -4.192 166.026 -4.11 Q 166.405 -4.029 166.65 -3.82 Q 166.895 -3.612 167.014 -3.241 Q 167.133 -2.869 167.133 -2.289 Q 167.133 -1.695 166.858 -1.264 Q 166.583 -0.832 166.122 -0.55 Q 165.661 -0.268 165.052 -0.134 Q 164.442 0 163.773 0 Q 162.718 0 161.967 -0.223 Q 161.217 -0.446 160.719 -0.855 Q 160.221 -1.264 159.931 -1.836 Q 159.641 -2.408 159.5 -3.122 Q 159.358 -3.835 159.321 -4.66 Q 159.284 -5.485 159.284 -6.392 L 159.284 -11.298 L 158.452 -11.298 Q 158.065 -11.298 157.686 -11.35 Q 157.307 -11.402 157.01 -11.58 Q 156.712 -11.759 156.527 -12.115 Q 156.341 -12.472 156.341 -13.082 Q 156.341 -13.721 156.527 -14.078 Q 156.712 -14.434 157.01 -14.613 Q 157.307 -14.791 157.686 -14.828 Q 158.065 -14.865 158.452 -14.865 Z" transform="matrix(7.01829, 0.037691, -0.040189, 8.549361, -744.583923, -477.93866)" style="fill: rgb(255, 255, 255); white-space: pre;"/>
    <path d="M 181.934 -3.36 Q 181.934 -2.735 181.889 -2.133 Q 181.844 -1.531 181.622 -1.055 Q 181.399 -0.58 180.953 -0.29 Q 180.507 0 179.704 0 Q 178.886 0 178.425 -0.275 Q 177.965 -0.55 177.742 -0.944 Q 177.519 -1.338 177.467 -1.769 Q 177.415 -2.2 177.415 -2.497 Q 177.281 -2.066 177.036 -1.62 Q 176.79 -1.174 176.404 -0.818 Q 176.017 -0.461 175.475 -0.23 Q 174.932 0 174.204 0 Q 173.386 0 172.568 -0.268 Q 171.751 -0.535 171.097 -1.16 Q 170.443 -1.784 170.034 -2.787 Q 169.625 -3.791 169.625 -5.262 L 169.625 -9.573 Q 169.625 -11.06 170.034 -12.063 Q 170.443 -13.067 171.097 -13.684 Q 171.751 -14.301 172.568 -14.568 Q 173.386 -14.836 174.204 -14.836 Q 174.932 -14.836 175.475 -14.613 Q 176.017 -14.39 176.404 -14.033 Q 176.79 -13.676 177.036 -13.23 Q 177.281 -12.784 177.415 -12.338 Q 177.415 -13.082 177.623 -13.572 Q 177.831 -14.063 178.158 -14.353 Q 178.485 -14.642 178.894 -14.754 Q 179.303 -14.865 179.704 -14.865 Q 180.447 -14.865 180.893 -14.576 Q 181.339 -14.286 181.569 -13.817 Q 181.8 -13.349 181.867 -12.732 Q 181.934 -12.115 181.934 -11.476 Z M 174.204 -5.649 Q 174.204 -5.247 174.233 -4.861 Q 174.263 -4.474 174.397 -4.162 Q 174.531 -3.85 174.791 -3.664 Q 175.051 -3.479 175.512 -3.479 Q 176.092 -3.479 176.456 -3.739 Q 176.82 -3.999 177.028 -4.541 Q 177.236 -5.084 177.318 -5.909 Q 177.4 -6.734 177.415 -7.879 Q 177.415 -8.34 177.333 -8.942 Q 177.251 -9.544 177.043 -10.079 Q 176.835 -10.614 176.463 -10.986 Q 176.092 -11.357 175.512 -11.357 Q 175.051 -11.357 174.791 -11.171 Q 174.531 -10.986 174.397 -10.688 Q 174.263 -10.391 174.233 -10.012 Q 174.204 -9.633 174.204 -9.246 Z" transform="matrix(7.01829, 0.037691, -0.040189, 8.549361, -744.583923, -477.93866)" style="fill: rgb(255, 255, 255); white-space: pre;"/>
    <path transform="matrix(3.07028, 0.016488, -0.014493, 3.083096, -322.471924, -187.478882)" style="fill: rgb(51, 51, 51); white-space: pre;"/>
  </g>
</svg>